<?xml version="1.0" standalone="no"?>
<!DOCTYPE svg PUBLIC "-//W3C//DTD SVG 20010904//EN"
 "http://www.w3.org/TR/2001/REC-SVG-20010904/DTD/svg10.dtd">
<svg version="1.0" xmlns="http://www.w3.org/2000/svg"
 width="1414.000000pt" height="833.000000pt" viewBox="0 0 1414.000000 833.000000"
 preserveAspectRatio="xMidYMid meet">

<g transform="translate(0.000000,833.000000) scale(0.100000,-0.100000)"
fill="#000000" stroke="none">
<path d="M10572 8023 c-12 -58 -20 -109 -17 -112 12 -11 23 18 39 99 18 96 20
120 7 120 -4 0 -18 -48 -29 -107z"/>
<path d="M9966 8020 c-31 -55 -56 -102 -56 -105 0 -16 22 0 35 25 14 27 21 30
61 30 41 0 45 -2 51 -30 7 -35 23 -40 23 -7 0 22 -14 112 -25 165 -10 42 -33
22 -89 -78z m74 38 c0 -13 3 -33 6 -45 6 -21 3 -23 -30 -23 -20 0 -36 2 -36 5
0 3 9 24 20 45 23 44 40 52 40 18z"/>
<path d="M10164 8045 c-50 -34 -56 -119 -10 -131 26 -6 66 10 66 26 0 6 -8 5
-19 -1 -27 -18 -51 -4 -51 28 0 55 47 92 78 61 7 -7 12 -8 12 -2 0 15 -22 34
-40 34 -8 0 -25 -7 -36 -15z"/>
<path d="M10290 8040 c-35 -35 -40 -104 -8 -124 20 -12 69 2 76 22 3 10 -2 10
-22 1 -28 -13 -56 1 -56 27 0 47 47 87 75 64 8 -7 15 -7 19 -1 7 11 -24 31
-48 31 -9 0 -25 -9 -36 -20z"/>
<path d="M10433 8045 c-12 -9 -27 -32 -32 -52 -17 -62 24 -100 83 -77 27 10
18 19 -21 19 -32 0 -39 4 -41 23 -3 18 1 22 22 22 61 0 99 35 70 65 -20 19
-53 19 -81 0z m65 -22 c-2 -12 -14 -19 -36 -21 -33 -3 -40 6 -20 26 19 19 60
15 56 -5z"/>
<path d="M10659 8031 c-25 -25 -30 -37 -27 -68 2 -30 8 -39 29 -47 29 -10 79
-1 79 14 0 5 -13 7 -30 4 -32 -7 -60 8 -60 32 0 9 12 14 34 14 46 0 85 32 70
57 -19 31 -60 28 -95 -6z m75 0 c10 -15 -21 -33 -50 -29 -27 3 -27 4 -10 21
19 18 51 23 60 8z"/>
<path d="M10801 8003 c-13 -68 -14 -93 -2 -93 5 0 12 18 16 40 8 46 41 94 61
86 8 -3 14 1 14 9 0 18 -14 19 -41 5 -13 -7 -19 -7 -19 0 0 5 -4 10 -9 10 -4
0 -13 -26 -20 -57z"/>
<path d="M10943 8045 c-25 -18 -47 -77 -38 -104 8 -26 38 -35 65 -21 28 15 32
10 16 -20 -10 -20 -19 -25 -49 -24 -45 2 -45 -20 0 -24 50 -5 71 22 90 116 15
77 12 113 -6 83 -6 -9 -11 -10 -15 -2 -10 15 -38 14 -63 -4z m51 -11 c23 -9
20 -49 -7 -80 -29 -34 -57 -27 -57 13 0 29 24 73 40 73 4 0 15 -3 24 -6z"/>
<path d="M11086 8023 c3 -21 10 -54 13 -73 6 -27 3 -42 -12 -63 -10 -16 -16
-31 -12 -35 13 -13 87 92 120 171 12 30 13 37 2 37 -8 0 -19 -17 -26 -38 -7
-21 -21 -49 -31 -62 l-18 -23 -7 61 c-5 44 -11 62 -21 62 -12 0 -13 -8 -8 -37z"/>
<path d="M556 7892 c-12 -19 -28 -141 -22 -165 11 -44 84 -49 125 -8 10 10 23
47 30 82 7 35 15 72 18 83 3 12 1 17 -8 14 -8 -3 -21 -37 -29 -78 -17 -81 -48
-118 -88 -106 -30 10 -33 29 -17 107 8 39 15 72 15 75 0 7 -19 4 -24 -4z"/>
<path d="M1240 7884 c0 -17 22 -14 28 4 2 7 -3 12 -12 12 -9 0 -16 -7 -16 -16z"/>
<path d="M1833 7860 c-3 -11 -12 -20 -19 -20 -8 0 -14 -4 -14 -10 0 -5 5 -10
10 -10 7 0 9 -20 4 -60 -5 -50 -4 -61 10 -66 9 -3 24 -3 34 1 15 6 14 8 -6 16
-20 8 -23 14 -17 41 12 60 16 68 36 68 10 0 19 5 19 10 0 6 -9 10 -19 10 -14
0 -18 5 -14 20 3 12 0 20 -7 20 -6 0 -14 -9 -17 -20z"/>
<path d="M758 7829 c-29 -16 -22 -52 13 -72 27 -15 29 -20 18 -33 -9 -11 -22
-14 -42 -10 -20 4 -27 2 -25 -7 7 -20 53 -20 78 1 27 22 22 52 -12 67 -35 15
-29 40 10 40 17 0 31 4 29 10 -5 14 -49 17 -69 4z"/>
<path d="M889 7811 c-51 -52 -35 -121 28 -121 11 0 28 7 39 15 18 14 17 14
-13 9 -20 -4 -39 -2 -48 6 -23 19 -18 40 9 40 63 0 106 40 71 66 -29 21 -54
17 -86 -15z m69 -8 c-2 -12 -14 -19 -36 -21 -33 -3 -40 6 -20 26 19 19 60 15
56 -5z"/>
<path d="M1031 7783 c-13 -68 -14 -93 -2 -93 5 0 12 18 16 40 8 46 41 94 61
86 8 -3 14 1 14 9 0 18 -14 19 -41 5 -13 -7 -19 -7 -19 0 0 5 -4 10 -9 10 -4
0 -13 -26 -20 -57z"/>
<path d="M1221 7783 c-13 -67 -14 -93 -2 -93 4 0 15 34 23 75 12 57 12 75 3
75 -7 0 -17 -25 -24 -57z"/>
<path d="M1305 7818 c-27 -120 -28 -137 -7 -124 5 3 12 24 16 46 7 42 35 80
61 80 17 0 19 -34 6 -92 -7 -29 -6 -38 4 -38 7 0 17 25 24 61 11 54 10 64 -3
78 -13 13 -21 13 -46 4 -17 -6 -30 -7 -30 -2 0 19 -20 8 -25 -13z"/>
<path d="M1480 7836 c0 -2 -9 -48 -20 -101 -11 -54 -18 -100 -16 -103 10 -9
26 10 26 31 0 29 15 53 24 38 12 -19 46 -12 71 14 18 17 25 35 25 63 0 52 -21
70 -61 55 -16 -6 -29 -7 -29 -2 0 5 -4 9 -10 9 -5 0 -10 -2 -10 -4z m88 -43
c4 -30 -25 -83 -46 -83 -42 0 -48 49 -10 90 24 26 52 23 56 -7z"/>
<path d="M1641 7779 c-11 -54 -10 -64 3 -78 13 -12 22 -13 46 -4 21 8 30 8 33
-1 2 -6 8 -8 12 -4 9 9 37 139 31 146 -11 10 -24 -11 -30 -48 -7 -43 -36 -80
-62 -80 -14 0 -15 9 -9 65 9 83 -8 86 -24 4z"/>
<path d="M3032 7768 c-27 -27 -3 -48 56 -48 18 0 22 6 22 30 0 27 -3 30 -33
30 -18 0 -38 -5 -45 -12z"/>
<path d="M3170 7750 c0 -27 3 -30 30 -30 27 0 30 3 30 30 0 27 -3 30 -30 30
-27 0 -30 -3 -30 -30z"/>
<path d="M3290 7750 c0 -27 3 -30 30 -30 27 0 30 3 30 30 0 27 -3 30 -30 30
-27 0 -30 -3 -30 -30z"/>
<path d="M3410 7750 c0 -27 3 -30 30 -30 27 0 30 3 30 30 0 27 -3 30 -30 30
-27 0 -30 -3 -30 -30z"/>
<path d="M3530 7750 c0 -27 3 -30 30 -30 27 0 30 3 30 30 0 27 -3 30 -30 30
-27 0 -30 -3 -30 -30z"/>
<path d="M3650 7750 c0 -27 3 -30 30 -30 27 0 30 3 30 30 0 27 -3 30 -30 30
-27 0 -30 -3 -30 -30z"/>
<path d="M3770 7750 c0 -27 3 -30 30 -30 27 0 30 3 30 30 0 27 -3 30 -30 30
-27 0 -30 -3 -30 -30z"/>
<path d="M3890 7750 c0 -27 3 -30 30 -30 27 0 30 3 30 30 0 27 -3 30 -30 30
-27 0 -30 -3 -30 -30z"/>
<path d="M4010 7750 c0 -27 3 -30 30 -30 27 0 30 3 30 30 0 27 -3 30 -30 30
-27 0 -30 -3 -30 -30z"/>
<path d="M4130 7750 c0 -27 3 -30 30 -30 27 0 30 3 30 30 0 27 -3 30 -30 30
-27 0 -30 -3 -30 -30z"/>
<path d="M4250 7750 c0 -27 3 -30 30 -30 27 0 30 3 30 30 0 27 -3 30 -30 30
-27 0 -30 -3 -30 -30z"/>
<path d="M4370 7750 c0 -27 3 -30 30 -30 27 0 30 3 30 30 0 27 -3 30 -30 30
-27 0 -30 -3 -30 -30z"/>
<path d="M4490 7750 c0 -27 3 -30 30 -30 27 0 30 3 30 30 0 27 -3 30 -30 30
-27 0 -30 -3 -30 -30z"/>
<path d="M4610 7750 c0 -27 3 -30 30 -30 27 0 30 3 30 30 0 27 -3 30 -30 30
-27 0 -30 -3 -30 -30z"/>
<path d="M4730 7750 c0 -27 3 -30 30 -30 27 0 30 3 30 30 0 27 -3 30 -30 30
-27 0 -30 -3 -30 -30z"/>
<path d="M4850 7750 c0 -27 3 -30 30 -30 27 0 30 3 30 30 0 27 -3 30 -30 30
-27 0 -30 -3 -30 -30z"/>
<path d="M4970 7750 c0 -27 3 -30 30 -30 27 0 30 3 30 30 0 27 -3 30 -30 30
-27 0 -30 -3 -30 -30z"/>
<path d="M5090 7750 c0 -27 3 -30 30 -30 27 0 30 3 30 30 0 27 -3 30 -30 30
-27 0 -30 -3 -30 -30z"/>
<path d="M5210 7750 c0 -27 3 -30 30 -30 27 0 30 3 30 30 0 27 -3 30 -30 30
-27 0 -30 -3 -30 -30z"/>
<path d="M5330 7750 c0 -27 3 -30 30 -30 27 0 30 3 30 30 0 27 -3 30 -30 30
-27 0 -30 -3 -30 -30z"/>
<path d="M5450 7750 c0 -27 3 -30 30 -30 27 0 30 3 30 30 0 27 -3 30 -30 30
-27 0 -30 -3 -30 -30z"/>
<path d="M5570 7750 c0 -27 3 -30 30 -30 27 0 30 3 30 30 0 27 -3 30 -30 30
-27 0 -30 -3 -30 -30z"/>
<path d="M5690 7750 c0 -27 3 -30 30 -30 27 0 30 3 30 30 0 27 -3 30 -30 30
-27 0 -30 -3 -30 -30z"/>
<path d="M5810 7750 c0 -27 3 -30 30 -30 27 0 30 3 30 30 0 27 -3 30 -30 30
-27 0 -30 -3 -30 -30z"/>
<path d="M5930 7750 c0 -27 3 -30 30 -30 27 0 30 3 30 30 0 27 -3 30 -30 30
-27 0 -30 -3 -30 -30z"/>
<path d="M6050 7750 c0 -27 3 -30 30 -30 27 0 30 3 30 30 0 27 -3 30 -30 30
-27 0 -30 -3 -30 -30z"/>
<path d="M6170 7750 c0 -27 3 -30 30 -30 27 0 30 3 30 30 0 27 -3 30 -30 30
-27 0 -30 -3 -30 -30z"/>
<path d="M6290 7750 c0 -27 3 -30 30 -30 27 0 30 3 30 30 0 27 -3 30 -30 30
-27 0 -30 -3 -30 -30z"/>
<path d="M6410 7750 c0 -27 3 -30 30 -30 27 0 30 3 30 30 0 27 -3 30 -30 30
-27 0 -30 -3 -30 -30z"/>
<path d="M6530 7750 c0 -27 3 -30 30 -30 27 0 30 3 30 30 0 27 -3 30 -30 30
-27 0 -30 -3 -30 -30z"/>
<path d="M6650 7750 c0 -27 3 -30 30 -30 27 0 30 3 30 30 0 27 -3 30 -30 30
-27 0 -30 -3 -30 -30z"/>
<path d="M6770 7750 c0 -27 3 -30 30 -30 27 0 30 3 30 30 0 27 -3 30 -30 30
-27 0 -30 -3 -30 -30z"/>
<path d="M6890 7750 c0 -27 3 -30 30 -30 27 0 30 3 30 30 0 27 -3 30 -30 30
-27 0 -30 -3 -30 -30z"/>
<path d="M7010 7750 c0 -27 3 -30 30 -30 27 0 30 3 30 30 0 27 -3 30 -30 30
-27 0 -30 -3 -30 -30z"/>
<path d="M7130 7750 c0 -27 3 -30 30 -30 27 0 30 3 30 30 0 27 -3 30 -30 30
-27 0 -30 -3 -30 -30z"/>
<path d="M7250 7750 c0 -27 3 -30 30 -30 27 0 30 3 30 30 0 27 -3 30 -30 30
-27 0 -30 -3 -30 -30z"/>
<path d="M7370 7750 c0 -27 3 -30 30 -30 27 0 30 3 30 30 0 27 -3 30 -30 30
-27 0 -30 -3 -30 -30z"/>
<path d="M7490 7750 c0 -27 3 -30 30 -30 27 0 30 3 30 30 0 27 -3 30 -30 30
-27 0 -30 -3 -30 -30z"/>
<path d="M7610 7750 c0 -27 3 -30 30 -30 27 0 30 3 30 30 0 27 -3 30 -30 30
-27 0 -30 -3 -30 -30z"/>
<path d="M7730 7750 c0 -27 3 -30 30 -30 27 0 30 3 30 30 0 27 -3 30 -30 30
-27 0 -30 -3 -30 -30z"/>
<path d="M7850 7750 c0 -27 3 -30 30 -30 27 0 30 3 30 30 0 27 -3 30 -30 30
-27 0 -30 -3 -30 -30z"/>
<path d="M7970 7750 c0 -27 3 -30 30 -30 27 0 30 3 30 30 0 27 -3 30 -30 30
-27 0 -30 -3 -30 -30z"/>
<path d="M8090 7750 c0 -27 3 -30 30 -30 27 0 30 3 30 30 0 27 -3 30 -30 30
-27 0 -30 -3 -30 -30z"/>
<path d="M8210 7750 c0 -27 3 -30 30 -30 27 0 30 3 30 30 0 27 -3 30 -30 30
-27 0 -30 -3 -30 -30z"/>
<path d="M8330 7750 c0 -27 3 -30 30 -30 27 0 30 3 30 30 0 27 -3 30 -30 30
-27 0 -30 -3 -30 -30z"/>
<path d="M8450 7750 c0 -27 3 -30 30 -30 27 0 30 3 30 30 0 27 -3 30 -30 30
-27 0 -30 -3 -30 -30z"/>
<path d="M8570 7750 c0 -27 3 -30 30 -30 27 0 30 3 30 30 0 27 -3 30 -30 30
-27 0 -30 -3 -30 -30z"/>
<path d="M8690 7750 c0 -27 3 -30 30 -30 27 0 30 3 30 30 0 27 -3 30 -30 30
-27 0 -30 -3 -30 -30z"/>
<path d="M8810 7750 c0 -27 3 -30 30 -30 27 0 30 3 30 30 0 27 -3 30 -30 30
-27 0 -30 -3 -30 -30z"/>
<path d="M8930 7750 c0 -27 3 -30 30 -30 27 0 30 3 30 30 0 27 -3 30 -30 30
-27 0 -30 -3 -30 -30z"/>
<path d="M9050 7750 c0 -27 3 -30 30 -30 27 0 30 3 30 30 0 27 -3 30 -30 30
-27 0 -30 -3 -30 -30z"/>
<path d="M9170 7750 c0 -27 3 -30 30 -30 27 0 30 3 30 30 0 27 -3 30 -30 30
-27 0 -30 -3 -30 -30z"/>
<path d="M9290 7750 c0 -27 3 -30 30 -30 27 0 30 3 30 30 0 27 -3 30 -30 30
-27 0 -30 -3 -30 -30z"/>
<path d="M9410 7750 c0 -27 3 -30 30 -30 27 0 30 3 30 30 0 27 -3 30 -30 30
-27 0 -30 -3 -30 -30z"/>
<path d="M9530 7750 c0 -27 3 -30 30 -30 27 0 30 3 30 30 0 27 -3 30 -30 30
-27 0 -30 -3 -30 -30z"/>
<path d="M9650 7750 c0 -27 3 -30 30 -30 27 0 30 3 30 30 0 27 -3 30 -30 30
-27 0 -30 -3 -30 -30z"/>
<path d="M9770 7750 c0 -27 3 -30 30 -30 27 0 30 3 30 30 0 27 -3 30 -30 30
-27 0 -30 -3 -30 -30z"/>
<path d="M9890 7750 c0 -27 3 -30 30 -30 27 0 30 3 30 30 0 27 -3 30 -30 30
-27 0 -30 -3 -30 -30z"/>
<path d="M10010 7750 c0 -27 3 -30 30 -30 27 0 30 3 30 30 0 27 -3 30 -30 30
-27 0 -30 -3 -30 -30z"/>
<path d="M10130 7750 c0 -27 3 -30 30 -30 27 0 30 3 30 30 0 27 -3 30 -30 30
-27 0 -30 -3 -30 -30z"/>
<path d="M10250 7750 c0 -27 3 -30 30 -30 27 0 30 3 30 30 0 27 -3 30 -30 30
-27 0 -30 -3 -30 -30z"/>
<path d="M10370 7750 c0 -27 3 -30 30 -30 27 0 30 3 30 30 0 27 -3 30 -30 30
-27 0 -30 -3 -30 -30z"/>
<path d="M10490 7750 c0 -27 3 -30 30 -30 27 0 30 3 30 30 0 27 -3 30 -30 30
-27 0 -30 -3 -30 -30z"/>
<path d="M10610 7750 c0 -27 3 -30 30 -30 27 0 30 3 30 30 0 27 -3 30 -30 30
-27 0 -30 -3 -30 -30z"/>
<path d="M10730 7750 c0 -27 3 -30 30 -30 27 0 30 3 30 30 0 27 -3 30 -30 30
-27 0 -30 -3 -30 -30z"/>
<path d="M10850 7750 c0 -27 3 -30 30 -30 27 0 30 3 30 30 0 27 -3 30 -30 30
-27 0 -30 -3 -30 -30z"/>
<path d="M10970 7750 c0 -27 3 -30 30 -30 27 0 30 3 30 30 0 27 -3 30 -30 30
-27 0 -30 -3 -30 -30z"/>
<path d="M11090 7750 c0 -27 3 -30 30 -30 27 0 30 3 30 30 0 27 -3 30 -30 30
-27 0 -30 -3 -30 -30z"/>
<path d="M11160 7700 c0 -27 3 -30 30 -30 27 0 30 3 30 30 0 27 -3 30 -30 30
-27 0 -30 -3 -30 -30z"/>
<path d="M3020 7640 c0 -27 3 -30 30 -30 27 0 30 3 30 30 0 27 -3 30 -30 30
-27 0 -30 -3 -30 -30z"/>
<path d="M11160 7580 c0 -27 3 -30 30 -30 27 0 30 3 30 30 0 27 -3 30 -30 30
-27 0 -30 -3 -30 -30z"/>
<path d="M7474 7587 c-3 -8 -4 -54 -2 -103 l3 -89 58 -3 c35 -2 57 1 57 8 0 5
-20 10 -45 10 l-45 0 0 40 c0 39 1 40 35 40 19 0 35 5 35 10 0 6 -16 10 -35
10 -33 0 -35 2 -35 35 0 35 0 35 45 35 25 0 45 5 45 10 0 16 -110 13 -116 -3z"/>
<path d="M7640 7495 c0 -63 4 -105 10 -105 6 0 10 20 10 45 0 32 5 47 15 52
21 8 52 -23 60 -59 6 -26 29 -47 40 -36 2 2 -7 27 -20 55 -20 44 -21 53 -9 64
21 17 18 66 -5 79 -11 5 -38 10 -60 10 l-41 0 0 -105z m89 67 c14 -27 -5 -52
-39 -52 -26 0 -30 4 -30 28 0 16 3 32 7 35 13 14 53 7 62 -11z"/>
<path d="M7790 7591 c0 -6 15 -11 33 -13 l32 -3 3 -92 c1 -51 7 -93 12 -93 5
0 11 42 12 93 l3 92 33 3 c64 6 30 22 -48 22 -44 0 -80 -4 -80 -9z"/>
<path d="M7998 7590 c-40 -24 -48 -142 -11 -182 21 -24 68 -23 93 2 16 16 20
33 20 85 0 52 -4 69 -20 85 -21 21 -55 25 -82 10z m66 -32 c31 -44 11 -148
-29 -148 -28 0 -45 31 -45 82 0 77 41 113 74 66z"/>
<path d="M3330 6220 l0 -1350 1570 0 1570 0 0 1350 0 1350 -1570 0 -1570 0 0
-1350z m3120 0 l0 -1330 -1550 0 -1550 0 0 1330 0 1330 1550 0 1550 0 0 -1330z"/>
<path d="M4360 6715 l0 -135 75 0 c60 0 75 3 75 15 0 12 -13 15 -55 15 l-55 0
0 50 0 50 45 0 c33 0 45 4 45 15 0 11 -12 15 -45 15 l-45 0 0 39 0 40 53 3
c77 4 63 23 -20 26 l-73 3 0 -136z"/>
<path d="M4560 6680 c0 -82 3 -100 15 -100 12 0 15 14 15 70 0 64 2 71 26 87
43 28 58 9 64 -78 4 -60 8 -74 23 -77 15 -3 17 5 17 67 0 38 -4 81 -10 95 -12
34 -55 44 -92 23 -24 -14 -28 -14 -28 -2 0 8 -7 15 -15 15 -12 0 -15 -18 -15
-100z"/>
<path d="M4807 6769 c-51 -30 -56 -132 -10 -169 31 -24 105 -27 123 -5 14 17
12 18 -46 15 -43 -1 -74 18 -74 46 0 11 15 14 65 14 l65 0 0 34 c0 58 -71 95
-123 65z m81 -31 c26 -26 13 -38 -38 -38 -54 0 -55 1 -40 31 12 22 59 26 78 7z"/>
<path d="M4990 6680 c0 -82 3 -100 15 -100 12 0 15 14 15 68 0 75 16 102 58
102 12 0 22 5 22 10 0 17 -30 23 -56 12 -15 -7 -24 -8 -24 -2 0 6 -7 10 -15
10 -12 0 -15 -18 -15 -100z"/>
<path d="M5142 6764 c-18 -13 -23 -24 -21 -53 1 -20 -1 -46 -5 -59 -5 -14 -3
-29 4 -37 7 -9 8 -15 0 -20 -5 -3 -10 -20 -10 -36 0 -22 6 -32 26 -39 41 -16
89 -12 118 11 51 40 26 80 -58 89 -36 4 -51 9 -51 20 0 11 9 14 37 12 48 -4
82 27 76 69 -3 20 0 29 9 29 7 0 13 7 13 15 0 22 -107 21 -138 -1z m79 -30
c19 -23 -1 -49 -37 -49 -30 0 -42 20 -30 51 7 19 50 18 67 -2z m14 -169 c0
-16 -8 -21 -39 -23 -43 -4 -62 8 -52 33 4 12 16 15 48 13 35 -2 43 -7 43 -23z"/>
<path d="M5300 6772 c0 -5 15 -52 34 -104 31 -86 33 -96 21 -126 -13 -29 -13
-32 5 -32 19 0 32 28 86 184 28 81 29 86 10 86 -9 0 -23 -26 -36 -67 -13 -38
-26 -72 -30 -76 -4 -5 -19 24 -32 65 -16 47 -31 74 -41 76 -9 2 -17 -1 -17 -6z"/>
<path d="M4018 6349 c-11 -6 -18 -22 -18 -38 0 -21 -6 -30 -21 -34 -23 -6 -17
-27 7 -27 11 0 14 -18 14 -85 0 -69 3 -85 15 -85 12 0 15 16 15 85 0 84 0 85
25 85 16 0 25 6 25 15 0 9 -10 15 -26 15 -21 0 -25 4 -22 23 2 16 11 23 31 25
16 2 27 8 24 15 -5 16 -47 20 -69 6z"/>
<path d="M5700 6220 c0 -118 2 -140 15 -140 8 0 15 5 15 10 0 7 6 7 19 0 72
-38 141 45 111 135 -18 54 -73 73 -112 38 -17 -15 -18 -14 -18 40 0 44 -3 57
-15 57 -13 0 -15 -22 -15 -140z m114 14 c32 -32 9 -124 -31 -124 -29 0 -53 31
-53 68 0 60 48 92 84 56z"/>
<path d="M5920 6220 c0 -118 2 -140 15 -140 13 0 15 22 15 140 0 118 -2 140
-15 140 -13 0 -15 -22 -15 -140z"/>
<path d="M5370 6305 c0 -16 -6 -25 -15 -25 -8 0 -15 -7 -15 -15 0 -8 7 -15 15
-15 12 0 15 -14 15 -68 0 -81 13 -105 55 -100 33 4 47 28 16 28 -28 0 -41 29
-41 89 0 46 2 50 27 53 39 4 42 28 4 28 -26 0 -31 4 -31 25 0 16 -6 25 -15 25
-9 0 -15 -9 -15 -25z"/>
<path d="M3647 6273 c-4 -3 -7 -48 -7 -100 0 -86 1 -93 20 -93 18 0 20 7 20
68 0 56 4 72 20 87 10 9 26 15 35 12 10 -5 15 0 15 13 0 22 -38 28 -57 9 -8
-8 -13 -8 -17 0 -8 12 -20 14 -29 4z"/>
<path d="M3805 6258 c-51 -45 -42 -144 15 -168 39 -16 104 -9 108 11 3 14 -4
16 -42 12 -50 -6 -76 7 -76 38 0 17 8 19 65 19 l65 0 0 30 c0 68 -82 103 -135
58z m95 -27 c15 -30 14 -31 -40 -31 -34 0 -50 4 -50 13 0 38 71 52 90 18z"/>
<path d="M4137 6269 c-51 -30 -56 -132 -10 -169 27 -21 96 -27 123 -10 23 14
3 24 -44 21 -45 -2 -76 16 -76 45 0 11 15 14 65 14 l65 0 0 34 c0 58 -71 95
-123 65z m81 -31 c26 -26 13 -38 -38 -38 -54 0 -55 1 -40 31 12 22 59 26 78 7z"/>
<path d="M4317 6273 c-4 -3 -7 -48 -7 -100 0 -86 1 -93 20 -93 18 0 20 7 20
68 0 56 4 72 20 87 10 9 26 15 35 12 10 -5 15 0 15 13 0 22 -38 28 -57 9 -8
-8 -13 -8 -17 0 -8 12 -20 14 -29 4z"/>
<path d="M4475 6258 c-51 -45 -42 -144 15 -168 39 -16 104 -9 108 11 3 14 -4
16 -42 12 -50 -6 -76 7 -76 38 0 17 8 19 65 19 l65 0 0 30 c0 68 -82 103 -135
58z m95 -27 c15 -30 14 -31 -40 -31 -34 0 -50 4 -50 13 0 38 71 52 90 18z"/>
<path d="M4667 6273 c-4 -3 -7 -48 -7 -100 0 -86 1 -93 20 -93 18 0 20 7 20
68 0 54 4 72 18 85 46 42 72 10 72 -87 0 -52 3 -66 15 -66 24 0 21 161 -3 183
-21 19 -54 22 -82 7 -13 -7 -21 -7 -25 0 -7 12 -19 13 -28 3z"/>
<path d="M4900 6262 c-18 -14 -24 -32 -28 -75 -4 -50 -2 -58 21 -81 30 -30 86
-35 111 -10 23 23 10 34 -24 21 -48 -18 -65 -1 -65 63 0 64 17 81 65 63 24 -9
30 -9 30 3 0 34 -74 45 -110 16z"/>
<path d="M5075 6255 c-20 -19 -25 -34 -25 -75 0 -66 30 -100 89 -100 48 0 71
8 71 25 0 8 -14 11 -49 7 -42 -4 -50 -1 -65 19 -9 13 -16 27 -16 31 0 5 29 8
64 8 36 0 68 5 71 10 10 16 -15 79 -35 90 -33 18 -79 11 -105 -15z m99 -27
c15 -24 5 -30 -48 -26 -46 3 -47 3 -30 26 19 27 61 27 78 0z"/>
<path d="M5509 6261 c-28 -23 -20 -38 11 -21 33 17 74 9 78 -16 3 -18 -3 -22
-40 -27 -43 -6 -78 -34 -78 -63 0 -8 9 -23 20 -34 15 -15 31 -19 80 -17 l62 1
-4 84 c-2 69 -6 86 -22 98 -28 20 -80 17 -107 -5z m91 -110 c0 -41 -71 -57
-78 -17 -5 23 14 36 51 36 20 0 27 -5 27 -19z"/>
<path d="M6044 6268 c-28 -13 -44 -49 -44 -99 0 -55 34 -89 89 -89 48 0 71 8
71 25 0 9 -13 11 -45 7 -49 -5 -75 8 -75 39 0 17 8 19 66 19 l67 0 -6 38 c-10
61 -65 88 -123 60z m74 -30 c25 -25 13 -38 -33 -38 -30 0 -45 4 -45 13 0 19
21 37 45 37 12 0 26 -5 33 -12z"/>
<path d="M3631 5815 c-14 -37 -21 -79 -21 -125 0 -80 32 -180 57 -180 11 0 13
6 8 23 -4 12 -14 52 -22 90 -13 60 -13 76 0 140 8 39 18 80 22 90 5 12 2 17
-8 17 -10 0 -24 -21 -36 -55z"/>
<path d="M4381 5809 c10 -33 19 -87 19 -119 0 -32 -9 -86 -19 -119 -16 -51
-17 -61 -4 -61 20 0 51 75 59 142 10 85 -27 218 -60 218 -11 0 -10 -12 5 -61z"/>
<path d="M3744 5837 c-2 -7 -3 -67 -2 -133 l3 -119 73 -3 c59 -2 72 0 72 13 0
12 -12 15 -55 15 l-55 0 0 49 0 50 45 3 c61 4 62 22 3 26 l-48 3 0 40 0 39 55
0 c42 0 55 3 55 15 0 20 -138 22 -146 2z"/>
<path d="M3944 5837 c-2 -7 -3 -67 -2 -132 3 -105 5 -120 21 -123 15 -3 17 5
17 58 0 61 0 61 28 58 22 -2 32 -14 55 -60 15 -32 34 -58 42 -58 21 0 19 17
-10 78 l-25 54 20 25 c27 34 25 59 -5 88 -20 21 -34 25 -80 25 -37 0 -57 -4
-61 -13z m110 -33 c32 -31 6 -74 -45 -74 -28 0 -29 2 -29 45 0 43 1 45 29 45
16 0 37 -7 45 -16z"/>
<path d="M4137 5844 c-13 -14 5 -24 44 -24 l39 0 0 -120 c0 -100 3 -120 15
-120 12 0 15 20 15 119 l0 120 43 3 c23 2 41 8 40 13 -3 11 -185 20 -196 9z"/>
<path d="M5760 5805 c0 -16 -6 -25 -15 -25 -8 0 -15 -7 -15 -15 0 -8 7 -15 15
-15 12 0 15 -14 15 -68 0 -81 13 -105 55 -100 33 4 47 28 16 28 -28 0 -41 29
-41 89 0 50 1 51 30 51 20 0 30 5 30 15 0 10 -10 15 -30 15 -25 0 -30 4 -30
25 0 16 -6 25 -15 25 -9 0 -15 -9 -15 -25z"/>
<path d="M4599 5759 c-16 -16 -20 -30 -16 -53 2 -17 1 -40 -3 -51 -4 -11 -4
-28 1 -37 6 -10 5 -19 -1 -23 -5 -3 -10 -20 -10 -36 0 -22 6 -32 26 -39 66
-25 144 -1 144 44 0 32 -24 49 -79 56 -31 3 -47 10 -49 21 -2 12 4 15 28 11
46 -7 80 20 80 63 0 19 5 35 10 35 6 0 10 7 10 15 0 12 -13 15 -60 15 -48 0
-64 -4 -81 -21z m82 -25 c17 -21 0 -49 -31 -49 -31 0 -48 28 -31 49 8 9 21 16
31 16 10 0 23 -7 31 -16z m24 -154 c12 -20 -17 -40 -56 -40 -41 0 -53 9 -43
34 7 18 89 23 99 6z"/>
<path d="M4809 5767 c-26 -20 -39 -53 -39 -97 0 -56 34 -90 89 -90 48 0 71 8
71 25 0 9 -13 11 -45 7 -49 -5 -75 8 -75 39 0 17 8 19 65 19 l65 0 0 30 c0 61
-83 104 -131 67z m79 -29 c25 -25 13 -38 -33 -38 -30 0 -45 4 -45 13 0 19 21
37 45 37 12 0 26 -5 33 -12z"/>
<path d="M4990 5680 c0 -82 3 -100 15 -100 12 0 15 14 15 70 0 64 2 71 26 87
44 28 58 9 62 -81 3 -69 5 -76 23 -76 20 0 21 5 18 86 -3 71 -7 88 -23 100
-26 19 -65 18 -88 -3 -17 -15 -18 -15 -18 0 0 10 -7 17 -15 17 -12 0 -15 -18
-15 -100z"/>
<path d="M5225 5755 c-20 -19 -25 -34 -25 -75 0 -66 30 -100 89 -100 48 0 71
8 71 25 0 8 -14 11 -49 7 -42 -4 -50 -1 -65 19 -9 13 -16 27 -16 31 0 5 29 8
65 8 74 0 85 11 65 61 -23 55 -92 68 -135 24z m99 -27 c15 -24 5 -30 -48 -26
-46 3 -47 3 -30 26 19 27 61 27 78 0z"/>
<path d="M5420 5680 c0 -82 3 -100 15 -100 12 0 15 14 15 68 0 74 19 107 55
100 23 -4 32 20 10 28 -9 4 -27 2 -41 -4 -15 -7 -24 -8 -24 -2 0 6 -7 10 -15
10 -12 0 -15 -18 -15 -100z"/>
<path d="M5573 5770 c-13 -5 -23 -17 -23 -26 0 -11 5 -14 18 -9 35 15 63 17
77 5 26 -22 17 -37 -26 -43 -70 -9 -103 -63 -61 -100 22 -20 73 -22 90 -5 9 9
12 9 12 0 0 -7 7 -12 15 -12 24 0 21 161 -3 183 -20 18 -64 21 -99 7z m87
-119 c0 -41 -71 -57 -78 -17 -5 23 14 36 51 36 20 0 27 -5 27 -19z"/>
<path d="M5914 5765 c-51 -35 -55 -127 -7 -165 61 -48 141 -10 150 72 5 42 3
50 -25 78 -34 34 -83 40 -118 15z m90 -31 c21 -20 20 -83 -1 -106 -34 -38 -93
-9 -93 46 0 63 56 99 94 60z"/>
<path d="M6110 5680 c0 -82 3 -100 15 -100 12 0 15 14 15 68 0 74 19 107 55
100 23 -4 32 20 10 28 -9 4 -27 2 -41 -4 -15 -7 -24 -8 -24 -2 0 6 -7 10 -15
10 -12 0 -15 -18 -15 -100z"/>
<path d="M3020 7520 c0 -27 3 -30 30 -30 27 0 30 3 30 30 0 27 -3 30 -30 30
-27 0 -30 -3 -30 -30z"/>
<path d="M17 7533 c-4 -3 -7 -350 -7 -769 l0 -764 23 -5 c419 -97 697 -108
997 -40 58 13 177 47 265 75 347 111 562 154 875 173 l195 12 0 660 0 660
-1171 3 c-644 1 -1174 -1 -1177 -5z m2313 -656 l0 -623 -182 -12 c-283 -19
-458 -50 -693 -122 -288 -88 -436 -129 -521 -144 -235 -41 -505 -28 -811 40
l-73 16 0 734 0 734 1140 0 1140 0 0 -623z"/>
<path d="M770 7315 c0 -104 2 -125 15 -125 12 0 15 13 15 59 0 50 4 62 22 75
15 11 26 12 40 5 15 -8 18 -22 18 -74 0 -51 3 -65 15 -65 22 0 21 132 -1 154
-18 18 -47 20 -75 6 -18 -10 -19 -7 -19 40 0 38 -4 50 -15 50 -13 0 -15 -21
-15 -125z"/>
<path d="M297 7323 c-19 -54 -38 -106 -42 -115 -5 -13 -2 -18 9 -18 10 0 22
13 27 30 10 28 14 30 60 30 47 0 51 -2 60 -30 6 -16 17 -30 25 -30 19 0 19 1
-25 120 -53 144 -66 145 -114 13z m72 16 c7 -23 15 -47 18 -55 4 -10 -4 -14
-29 -14 -19 0 -37 3 -40 6 -7 6 23 104 32 104 4 0 12 -18 19 -41z"/>
<path d="M970 7405 c0 -8 7 -15 15 -15 8 0 15 7 15 15 0 8 -7 15 -15 15 -8 0
-15 -7 -15 -15z"/>
<path d="M1060 7380 c0 -11 -7 -20 -15 -20 -8 0 -15 -4 -15 -10 0 -5 7 -10 15
-10 12 0 15 -13 15 -59 0 -42 5 -64 16 -76 19 -19 55 -16 62 4 3 10 0 12 -11
8 -25 -9 -38 18 -35 70 3 41 6 48 26 51 30 5 28 22 -3 22 -18 0 -25 5 -25 20
0 11 -7 20 -15 20 -8 0 -15 -9 -15 -20z"/>
<path d="M1530 7380 c0 -11 -7 -20 -15 -20 -8 0 -15 -4 -15 -10 0 -5 7 -10 15
-10 12 0 15 -14 15 -64 0 -43 5 -67 14 -76 18 -14 58 -10 64 8 2 7 -2 13 -9
11 -35 -4 -39 1 -39 61 0 57 1 60 25 60 14 0 25 5 25 10 0 6 -11 10 -25 10
-18 0 -25 5 -25 20 0 11 -7 20 -15 20 -8 0 -15 -9 -15 -20z"/>
<path d="M490 7275 c0 -69 3 -85 15 -85 12 0 15 13 15 58 0 60 11 82 42 82 10
0 18 7 18 15 0 18 -31 20 -49 3 -11 -10 -14 -10 -18 0 -13 35 -23 3 -23 -73z"/>
<path d="M630 7342 c-13 -10 -23 -33 -27 -57 -9 -73 57 -121 113 -81 24 18 13
31 -15 16 -27 -14 -59 2 -67 35 -13 52 26 96 67 75 28 -15 39 -2 15 16 -27 19
-59 18 -86 -4z"/>
<path d="M970 7275 c0 -69 3 -85 15 -85 12 0 15 16 15 85 0 69 -3 85 -15 85
-12 0 -15 -16 -15 -85z"/>
<path d="M1196 7339 c-35 -27 -37 -98 -4 -129 21 -20 70 -26 102 -14 31 12 16
22 -29 21 -31 -1 -49 3 -55 13 -20 31 -11 39 48 42 54 3 57 4 54 28 -3 30 -36
60 -67 60 -12 0 -34 -9 -49 -21z m78 -15 c26 -25 19 -34 -29 -34 -48 0 -62 19
-27 39 24 15 38 13 56 -5z"/>
<path d="M1380 7340 c-30 -30 -28 -113 2 -134 36 -26 98 -18 98 11 0 10 -6 13
-15 9 -8 -3 -21 -8 -28 -11 -25 -10 -51 21 -51 60 0 39 26 70 51 60 7 -3 20
-8 28 -11 9 -4 15 -1 15 9 0 32 -70 37 -100 7z"/>
<path d="M1650 7291 c0 -92 31 -123 91 -91 13 7 19 7 19 0 0 -5 7 -10 15 -10
12 0 15 16 15 85 0 69 -3 85 -15 85 -12 0 -15 -13 -15 -60 0 -53 -3 -61 -25
-76 -39 -26 -55 -5 -55 72 0 50 -3 64 -15 64 -12 0 -15 -14 -15 -69z"/>
<path d="M1850 7275 c0 -50 4 -85 10 -85 6 0 10 24 10 53 0 57 19 87 53 87 9
0 17 7 17 15 0 17 -23 20 -51 5 -13 -7 -19 -7 -19 0 0 5 -4 10 -10 10 -6 0
-10 -35 -10 -85z"/>
<path d="M1989 7341 c-34 -28 -34 -104 0 -132 32 -26 111 -24 111 3 0 6 -14 8
-35 4 -27 -5 -39 -2 -55 14 -32 32 -24 40 40 40 57 0 60 1 60 25 0 57 -74 85
-121 46z m85 -23 c14 -24 5 -30 -43 -26 -41 3 -41 3 -25 26 18 26 51 26 68 0z"/>
<path d="M470 6940 c0 -47 -1 -50 -19 -40 -32 17 -58 12 -80 -16 -54 -69 2
-169 75 -135 15 6 24 7 24 1 0 -6 7 -10 15 -10 13 0 15 21 15 125 0 104 -2
125 -15 125 -11 0 -15 -12 -15 -50z m-2 -113 c3 -29 -2 -39 -23 -53 -24 -16
-27 -16 -45 1 -26 23 -25 70 1 96 18 18 23 19 42 6 14 -9 23 -27 25 -50z"/>
<path d="M1180 6955 c0 -8 7 -15 15 -15 8 0 15 7 15 15 0 8 -7 15 -15 15 -8 0
-15 -7 -15 -15z"/>
<path d="M1590 6955 c0 -8 7 -15 15 -15 8 0 15 7 15 15 0 8 -7 15 -15 15 -8 0
-15 -7 -15 -15z"/>
<path d="M1470 6930 c0 -11 -7 -20 -15 -20 -8 0 -15 -4 -15 -10 0 -5 7 -10 15
-10 12 0 15 -14 15 -64 0 -43 5 -67 14 -76 18 -14 58 -10 64 8 2 7 -2 13 -9
11 -35 -4 -39 1 -39 61 0 57 1 60 25 60 14 0 25 5 25 10 0 6 -11 10 -25 10
-18 0 -25 5 -25 20 0 11 -7 20 -15 20 -8 0 -15 -9 -15 -20z"/>
<path d="M575 6885 c-68 -67 8 -174 99 -139 29 11 17 27 -16 20 -35 -7 -78 15
-78 39 0 12 14 15 60 15 48 0 60 3 60 16 0 19 -19 56 -34 66 -23 16 -67 8 -91
-17z m76 -5 c36 -20 23 -40 -26 -40 -48 0 -55 9 -29 34 18 19 28 20 55 6z"/>
<path d="M758 6899 c-10 -5 -18 -21 -18 -34 0 -19 10 -30 40 -45 60 -30 46
-73 -16 -50 -22 9 -25 7 -22 -7 5 -26 64 -30 89 -7 28 26 20 56 -21 76 -47 24
-48 54 -2 51 21 -1 32 3 29 10 -5 16 -57 20 -79 6z"/>
<path d="M910 6892 c-13 -10 -23 -33 -27 -57 -9 -73 57 -121 113 -81 24 18 13
31 -15 16 -27 -14 -59 2 -67 35 -13 52 26 96 67 75 28 -15 39 -2 15 16 -27 19
-59 18 -86 -4z"/>
<path d="M1050 6825 c0 -69 3 -85 15 -85 12 0 15 13 15 58 0 60 11 82 42 82
10 0 18 7 18 15 0 18 -31 20 -48 3 -9 -9 -12 -9 -12 0 0 7 -7 12 -15 12 -12 0
-15 -16 -15 -85z"/>
<path d="M1180 6825 c0 -69 3 -85 15 -85 12 0 15 16 15 85 0 69 -3 85 -15 85
-12 0 -15 -16 -15 -85z"/>
<path d="M1270 6795 c0 -96 3 -115 15 -115 11 0 15 11 15 42 0 33 3 39 12 30
17 -17 52 -15 78 6 18 14 23 30 24 64 2 72 -41 106 -97 77 -16 -9 -22 -9 -25
0 -2 6 -8 11 -13 11 -5 0 -9 -52 -9 -115z m114 51 c7 -30 -7 -71 -27 -79 -26
-10 -57 21 -57 58 0 64 69 81 84 21z"/>
<path d="M1590 6825 c0 -69 3 -85 15 -85 12 0 15 16 15 85 0 69 -3 85 -15 85
-12 0 -15 -16 -15 -85z"/>
<path d="M1692 6890 c-32 -30 -31 -112 0 -134 31 -22 80 -20 106 4 22 21 27
41 23 90 -4 55 -86 80 -129 40z m73 -6 c22 -9 37 -49 29 -80 -12 -47 -78 -52
-95 -7 -17 44 -1 74 48 92 1 1 9 -2 18 -5z"/>
<path d="M1870 6825 c0 -69 3 -85 15 -85 12 0 15 13 15 59 0 50 4 62 22 75 15
11 26 12 40 5 15 -8 18 -22 18 -74 0 -51 3 -65 15 -65 22 0 21 132 -1 154 -18
18 -47 20 -75 6 -13 -7 -19 -7 -19 0 0 5 -7 10 -15 10 -12 0 -15 -16 -15 -85z"/>
<path d="M693 6503 c-24 -63 -24 -163 0 -225 10 -27 25 -48 32 -48 12 0 12 7
-1 42 -26 74 -28 146 -6 216 15 48 17 62 7 62 -7 0 -22 -21 -32 -47z"/>
<path d="M1640 6543 c0 -5 7 -30 15 -57 19 -63 19 -129 -1 -195 -8 -29 -13
-55 -10 -58 25 -25 61 98 53 181 -6 65 -31 136 -47 136 -6 0 -10 -3 -10 -7z"/>
<path d="M770 6515 c0 -3 16 -37 35 -75 23 -45 35 -84 35 -110 0 -29 4 -40 15
-40 11 0 15 12 15 45 0 32 10 66 35 115 31 62 33 70 17 70 -13 0 -25 -17 -42
-57 l-23 -56 -29 56 c-15 32 -35 57 -43 57 -8 0 -15 -2 -15 -5z"/>
<path d="M1006 6511 c-12 -18 -76 -196 -76 -208 0 -24 22 -13 33 17 10 28 15
30 60 30 44 0 49 -2 58 -30 11 -29 39 -42 39 -17 -1 6 -18 57 -38 112 -35 95
-59 124 -76 96z m50 -115 c6 -25 4 -26 -31 -26 -36 0 -37 1 -32 28 3 15 11 41
18 57 l11 30 14 -31 c7 -17 16 -43 20 -58z"/>
<path d="M1170 6405 c0 -94 3 -115 15 -115 11 0 15 19 17 92 l3 92 35 -89 c20
-50 42 -91 50 -93 10 -2 28 28 55 95 l40 98 3 -97 c2 -78 6 -98 17 -98 12 0
15 21 15 115 0 115 0 115 -24 115 -21 0 -29 -12 -62 -90 -21 -49 -41 -87 -45
-82 -3 4 -21 44 -39 90 -28 71 -36 82 -56 82 -24 0 -24 0 -24 -115z"/>
<path d="M1490 6405 l0 -115 61 0 c44 0 60 3 57 13 -3 6 -23 13 -46 15 l-42 3
0 100 c0 81 -3 99 -15 99 -12 0 -15 -19 -15 -115z"/>
<path d="M6806 7527 c-26 -19 -16 -50 22 -66 17 -8 32 -21 32 -28 0 -20 -30
-28 -51 -14 -15 9 -19 8 -19 -4 0 -17 40 -29 69 -20 22 7 36 38 25 56 -3 6
-22 18 -41 25 -41 18 -38 39 5 39 18 0 31 4 29 10 -5 16 -50 17 -71 2z"/>
<path d="M6937 7533 c-15 -14 -5 -20 30 -19 28 1 38 -3 41 -16 3 -14 -3 -18
-23 -18 -39 0 -65 -18 -65 -44 0 -34 18 -44 74 -44 l48 1 -4 58 c-2 31 -10 64
-17 73 -13 16 -71 22 -84 9z m73 -86 c0 -32 -52 -51 -63 -23 -3 7 0 19 6 25
15 15 57 14 57 -2z"/>
<path d="M7062 7532 c2 -4 14 -38 27 -75 17 -45 30 -67 41 -67 11 0 24 22 41
67 13 37 26 71 27 75 2 4 -3 8 -11 8 -8 0 -22 -23 -32 -55 -11 -30 -22 -55
-25 -55 -4 0 -14 25 -24 55 -11 35 -23 55 -32 55 -9 0 -14 -4 -12 -8z"/>
<path d="M7241 7514 c-55 -69 10 -150 93 -118 30 12 16 25 -19 18 -37 -7 -65
7 -65 32 0 10 14 14 50 14 46 0 50 2 50 23 0 56 -73 76 -109 31z m77 -6 c21
-21 13 -28 -28 -28 -22 0 -40 4 -40 8 0 14 23 32 40 32 9 0 21 -5 28 -12z"/>
<path d="M8597 7523 c-4 -3 -7 -451 -7 -994 0 -931 1 -989 18 -997 27 -15 186
-58 302 -83 88 -20 136 -23 300 -23 267 -1 303 8 741 187 323 132 563 186 829
187 52 0 101 4 108 8 10 7 12 186 10 863 l-3 854 -1146 3 c-630 1 -1149 -1
-1152 -5z m2263 -852 l0 -818 -31 -7 c-17 -3 -60 -6 -95 -6 -83 0 -277 -26
-384 -51 -118 -27 -281 -82 -435 -147 -211 -88 -304 -122 -410 -150 -91 -24
-117 -26 -290 -26 -169 0 -204 2 -315 26 -69 15 -158 37 -197 49 l-73 22 0
964 0 963 1115 0 1115 0 0 -819z"/>
<path d="M9750 6935 c0 -41 -2 -44 -18 -34 -30 19 -69 3 -81 -31 -24 -69 18
-127 74 -102 15 7 25 8 25 2 0 -6 7 -10 15 -10 12 0 15 19 15 110 0 91 -3 110
-15 110 -11 0 -15 -12 -15 -45z m-19 -55 c13 -8 19 -21 19 -46 0 -27 -5 -37
-26 -46 -22 -11 -28 -10 -40 7 -17 22 -18 49 -4 76 12 22 23 24 51 9z"/>
<path d="M9040 6952 c-33 -27 -21 -66 29 -91 21 -11 41 -26 44 -34 11 -30 -29
-52 -68 -37 -19 7 -25 6 -25 -4 0 -29 63 -35 98 -10 17 12 22 24 20 47 -2 26
-11 36 -45 55 -27 15 -43 31 -43 42 0 23 33 35 60 20 16 -8 20 -8 20 4 0 30
-57 35 -90 8z"/>
<path d="M9910 6865 l0 -105 55 0 c30 0 55 5 55 10 0 6 -20 10 -45 10 l-45 0
0 40 0 40 40 0 c22 0 40 5 40 10 0 6 -18 10 -40 10 -39 0 -40 1 -40 35 0 35 0
35 45 35 25 0 45 5 45 10 0 6 -25 10 -55 10 l-55 0 0 -105z"/>
<path d="M10070 6865 c0 -87 3 -105 15 -105 11 0 15 12 15 50 0 37 4 50 14 50
21 0 43 -25 56 -65 6 -19 18 -35 26 -35 19 0 18 6 -10 62 -22 45 -22 47 -4 62
42 36 3 86 -67 86 l-45 0 0 -105z m91 69 c18 -21 0 -48 -35 -52 -24 -3 -26 0
-26 32 0 31 3 36 24 36 13 0 29 -7 37 -16z"/>
<path d="M10220 6961 c0 -6 15 -11 33 -13 l32 -3 3 -92 c1 -51 7 -93 12 -93 5
0 11 42 12 93 l3 92 33 3 c64 6 30 22 -48 22 -44 0 -80 -4 -80 -9z"/>
<path d="M9187 6903 c-16 -15 -5 -24 23 -18 19 4 36 2 45 -5 22 -19 18 -30
-11 -30 -42 0 -64 -18 -64 -50 0 -32 15 -40 78 -38 l32 1 0 62 c0 34 -5 66
-12 73 -13 13 -80 17 -91 5z m83 -86 c0 -19 -21 -37 -42 -37 -24 0 -35 29 -17
41 21 13 59 11 59 -4z"/>
<path d="M9320 6903 c0 -4 12 -38 26 -76 19 -49 31 -67 42 -65 15 3 62 106 62
135 0 28 -18 10 -35 -34 -10 -27 -21 -52 -25 -57 -5 -4 -16 17 -26 48 -10 31
-24 56 -31 56 -7 0 -13 -3 -13 -7z"/>
<path d="M9502 6894 c-17 -12 -22 -25 -22 -59 0 -34 5 -47 22 -59 23 -17 55
-20 82 -10 29 11 16 25 -17 19 -25 -5 -39 -2 -50 10 -28 27 -20 35 38 35 48 0
55 2 55 20 0 27 -35 60 -63 60 -12 0 -33 -7 -45 -16z m76 -26 c3 -15 -4 -18
-38 -18 -38 0 -40 1 -30 21 14 25 63 23 68 -3z"/>
<path d="M10393 6904 c-7 -3 -13 -18 -13 -33 0 -21 8 -31 35 -44 19 -9 35 -21
35 -26 0 -16 -38 -23 -60 -11 -16 9 -20 8 -20 -4 0 -21 46 -31 76 -17 38 17
32 54 -12 74 -40 20 -41 42 0 42 14 -1 25 4 23 10 -4 11 -45 17 -64 9z"/>
<path d="M9305 6538 c-8 -28 -15 -70 -15 -93 0 -57 27 -145 45 -145 12 0 12 6
0 41 -8 23 -15 70 -15 104 0 34 7 81 15 104 12 35 12 41 0 41 -8 0 -20 -21
-30 -52z"/>
<path d="M10155 6549 c8 -23 15 -70 15 -104 0 -34 -7 -81 -15 -104 -12 -35
-12 -41 0 -41 18 0 45 88 45 145 0 57 -27 145 -45 145 -12 0 -12 -6 0 -41z"/>
<path d="M9380 6565 c0 -3 14 -32 30 -65 19 -37 30 -75 30 -100 0 -22 5 -40
10 -40 6 0 10 16 10 35 0 20 14 62 30 95 32 63 36 80 20 80 -6 0 -20 -20 -32
-45 -12 -25 -25 -45 -28 -45 -3 0 -16 20 -28 45 -12 25 -26 45 -32 45 -5 0
-10 -2 -10 -5z"/>
<path d="M9551 6478 c-19 -51 -36 -99 -38 -105 -3 -7 2 -13 10 -13 9 0 18 13
22 30 6 28 10 30 51 30 41 0 46 -3 55 -30 6 -16 18 -30 26 -30 8 0 13 6 11 13
-3 6 -20 54 -38 105 -23 66 -37 92 -49 92 -12 0 -26 -27 -50 -92z m65 17 c20
-48 18 -55 -16 -55 -16 0 -30 5 -30 12 0 14 23 78 28 78 1 0 10 -16 18 -35z"/>
<path d="M9730 6466 c0 -64 4 -106 10 -106 6 0 10 36 10 87 0 47 3 83 8 79 4
-4 21 -42 37 -84 18 -46 36 -77 45 -77 9 0 28 35 50 90 l35 89 3 -92 c4 -128
22 -117 22 13 0 97 -1 105 -19 105 -15 0 -27 -19 -52 -80 -18 -44 -35 -80 -38
-80 -4 0 -20 35 -36 78 -24 60 -35 78 -53 80 -22 3 -22 1 -22 -102z"/>
<path d="M10010 6465 l0 -105 55 0 c30 0 55 5 55 10 0 6 -18 10 -40 10 l-40 0
0 95 c0 78 -3 95 -15 95 -12 0 -15 -18 -15 -105z"/>
<path d="M11160 7460 c0 -27 3 -30 30 -30 27 0 30 3 30 30 0 27 -3 30 -30 30
-27 0 -30 -3 -30 -30z"/>
<path d="M3020 7400 c0 -27 3 -30 30 -30 27 0 30 3 30 30 0 27 -3 30 -30 30
-27 0 -30 -3 -30 -30z"/>
<path d="M11160 7340 c0 -27 3 -30 30 -30 27 0 30 3 30 30 0 27 -3 30 -30 30
-27 0 -30 -3 -30 -30z"/>
<path d="M8110 7300 l0 -40 -780 0 -780 0 0 -40 0 -40 780 0 780 0 0 -40 0
-40 115 57 c63 32 115 60 115 63 0 3 -52 31 -115 63 l-115 57 0 -40z"/>
<path d="M3020 7280 c0 -27 3 -30 30 -30 27 0 30 3 30 30 0 27 -3 30 -30 30
-27 0 -30 -3 -30 -30z"/>
<path d="M11160 7220 c0 -27 3 -30 30 -30 27 0 30 3 30 30 0 27 -3 30 -30 30
-27 0 -30 -3 -30 -30z"/>
<path d="M3020 7160 c0 -27 3 -30 30 -30 27 0 30 3 30 30 0 27 -3 30 -30 30
-27 0 -30 -3 -30 -30z"/>
<path d="M11160 7100 c0 -27 3 -30 30 -30 27 0 30 3 30 30 0 27 -3 30 -30 30
-27 0 -30 -3 -30 -30z"/>
<path d="M3020 7040 c0 -27 3 -30 30 -30 27 0 30 3 30 30 0 27 -3 30 -30 30
-27 0 -30 -3 -30 -30z"/>
<path d="M11160 6980 c0 -27 3 -30 30 -30 27 0 30 3 30 30 0 27 -3 30 -30 30
-27 0 -30 -3 -30 -30z"/>
<path d="M7474 6947 c-3 -8 -4 -54 -2 -103 l3 -89 58 -3 c35 -2 57 1 57 8 0 5
-20 10 -45 10 l-45 0 0 40 c0 39 1 40 35 40 19 0 35 5 35 10 0 6 -16 10 -35
10 -33 0 -35 2 -35 35 0 35 0 35 45 35 25 0 45 5 45 10 0 16 -110 13 -116 -3z"/>
<path d="M7640 6855 c0 -63 4 -105 10 -105 6 0 10 23 10 50 0 42 3 50 18 50
23 0 44 -24 62 -67 12 -33 30 -45 30 -20 0 6 -9 31 -19 54 -17 36 -17 43 -5
54 8 6 14 25 14 40 0 33 -27 49 -86 49 l-34 0 0 -105z m91 69 c19 -23 -1 -48
-40 -52 -30 -3 -31 -2 -31 32 0 33 2 36 29 36 16 0 34 -7 42 -16z"/>
<path d="M7790 6950 c0 -5 16 -10 35 -10 l35 0 0 -95 c0 -123 18 -125 22 -2
l3 92 33 3 c64 6 30 22 -48 22 -47 0 -80 -4 -80 -10z"/>
<path d="M8008 6944 c-16 -8 -28 -19 -28 -25 0 -6 7 -6 19 1 11 5 22 10 25 10
3 0 6 -36 6 -80 0 -79 0 -80 -25 -80 -14 0 -25 -4 -25 -10 0 -6 27 -10 60 -10
33 0 60 4 60 10 0 6 -11 10 -25 10 -25 0 -25 0 -25 95 0 52 -3 95 -7 95 -5 -1
-20 -8 -35 -16z"/>
<path d="M3020 6920 c0 -27 3 -30 30 -30 27 0 30 3 30 30 0 27 -3 30 -30 30
-27 0 -30 -3 -30 -30z"/>
<path d="M6808 6889 c-30 -17 -22 -48 17 -66 19 -9 35 -23 35 -30 0 -20 -30
-28 -51 -14 -15 9 -19 8 -19 -3 0 -30 59 -35 84 -7 22 25 11 49 -31 66 -42 18
-39 40 5 40 34 0 42 9 16 19 -22 8 -36 7 -56 -5z"/>
<path d="M6937 6893 c-14 -13 -6 -18 30 -18 56 0 57 -28 1 -41 -36 -8 -43 -13
-46 -36 -4 -33 17 -46 77 -45 l43 0 -4 58 c-2 31 -10 64 -17 73 -13 16 -71 22
-84 9z m73 -93 c0 -23 -45 -39 -62 -22 -16 16 8 42 38 42 17 0 24 -6 24 -20z"/>
<path d="M7087 6825 c18 -50 32 -75 42 -75 11 0 25 25 43 75 19 53 23 75 14
75 -7 0 -20 -25 -30 -55 -9 -30 -20 -55 -24 -55 -5 0 -16 25 -27 55 -10 30
-24 55 -31 55 -10 0 -6 -20 13 -75z"/>
<path d="M7245 6875 c-27 -26 -31 -49 -16 -88 11 -28 53 -42 95 -31 39 10 32
26 -9 18 -37 -7 -65 7 -65 32 0 10 14 14 50 14 46 0 50 2 50 24 0 27 -33 56
-63 56 -10 0 -29 -11 -42 -25z m73 -7 c21 -21 13 -28 -28 -28 -22 0 -40 4 -40
8 0 14 23 32 40 32 9 0 21 -5 28 -12z"/>
<path d="M11160 6860 c0 -27 3 -30 30 -30 27 0 30 3 30 30 0 27 -3 30 -30 30
-27 0 -30 -3 -30 -30z"/>
<path d="M2950 6790 l0 -40 -265 0 -265 0 0 -40 0 -40 265 0 265 0 0 -40 0
-40 115 57 c63 32 115 60 115 64 0 3 -22 16 -50 29 -45 21 -50 27 -50 57 0 30
-3 33 -30 33 -20 0 -30 -5 -30 -15 0 -19 -4 -19 -40 0 l-30 16 0 -41z"/>
<path d="M11160 6740 c0 -27 3 -30 30 -30 27 0 30 3 30 30 0 27 -3 30 -30 30
-27 0 -30 -3 -30 -30z"/>
<path d="M8110 6615 l0 -35 -780 0 -780 0 0 -40 0 -40 779 0 780 0 3 -39 3
-39 115 58 115 58 -113 56 c-61 31 -114 56 -117 56 -3 0 -5 -16 -5 -35z"/>
<path d="M11160 6620 c0 -27 3 -30 30 -30 27 0 30 3 30 30 0 27 -3 30 -30 30
-27 0 -30 -3 -30 -30z"/>
<path d="M3020 6560 c0 -27 3 -30 30 -30 27 0 30 3 30 30 0 27 -3 30 -30 30
-27 0 -30 -3 -30 -30z"/>
<path d="M11160 6500 c0 -27 3 -30 30 -30 27 0 30 3 30 30 0 27 -3 30 -30 30
-27 0 -30 -3 -30 -30z"/>
<path d="M3020 6440 c0 -27 3 -30 30 -30 27 0 30 3 30 30 0 27 -3 30 -30 30
-27 0 -30 -3 -30 -30z"/>
<path d="M11160 6380 c0 -27 3 -30 30 -30 27 0 30 3 30 30 0 27 -3 30 -30 30
-27 0 -30 -3 -30 -30z"/>
<path d="M3020 6320 c0 -27 3 -30 30 -30 27 0 30 3 30 30 0 27 -3 30 -30 30
-27 0 -30 -3 -30 -30z"/>
<path d="M2950 6276 l0 -34 -115 -4 c-89 -2 -118 -6 -125 -18 -6 -9 -10 -328
-10 -812 l0 -798 -140 0 -140 0 0 -40 0 -40 180 0 180 0 0 810 0 810 85 0 85
0 0 -35 c0 -40 1 -40 40 -20 l30 16 0 -31 c0 -27 3 -30 30 -30 27 0 30 3 30
30 0 26 -4 30 -27 30 -22 1 -10 9 50 37 42 20 77 39 77 43 0 7 -211 120 -224
120 -3 0 -6 -15 -6 -34z"/>
<path d="M11160 6260 c0 -27 3 -30 30 -30 27 0 30 3 30 30 0 27 -3 30 -30 30
-27 0 -30 -3 -30 -30z"/>
<path d="M7474 6247 c-3 -8 -4 -54 -2 -103 l3 -89 58 -3 c35 -2 57 1 57 8 0 5
-20 10 -45 10 l-45 0 0 40 c0 39 1 40 35 40 19 0 35 5 35 10 0 6 -16 10 -35
10 -33 0 -35 2 -35 35 0 35 0 35 45 35 25 0 45 5 45 10 0 16 -110 13 -116 -3z"/>
<path d="M7640 6155 c0 -63 4 -105 10 -105 6 0 10 20 10 45 0 32 5 47 15 52
21 8 52 -23 60 -59 6 -26 29 -47 40 -36 2 2 -7 27 -20 55 -20 44 -21 53 -9 64
21 17 18 66 -5 79 -11 5 -38 10 -60 10 l-41 0 0 -105z m89 67 c14 -27 -5 -52
-39 -52 -26 0 -30 4 -30 28 0 16 3 32 7 35 13 14 53 7 62 -11z"/>
<path d="M7790 6251 c0 -6 15 -11 33 -13 l32 -3 3 -92 c1 -51 7 -93 12 -93 5
0 11 42 12 93 l3 92 33 3 c64 6 30 22 -48 22 -44 0 -80 -4 -80 -9z"/>
<path d="M7984 6246 c-24 -18 -13 -31 15 -16 25 13 61 -2 61 -26 0 -24 -26
-66 -59 -98 -48 -46 -41 -56 34 -56 37 0 65 4 65 10 0 6 -20 10 -45 10 -52 0
-55 7 -19 41 31 28 54 70 54 97 0 44 -65 67 -106 38z"/>
<path d="M6806 6187 c-26 -19 -16 -50 22 -66 17 -8 32 -21 32 -28 0 -20 -30
-28 -51 -14 -15 9 -19 8 -19 -4 0 -17 40 -29 69 -20 22 7 36 38 25 56 -3 6
-22 18 -41 25 -41 18 -38 39 5 39 18 0 31 4 29 10 -5 16 -50 17 -71 2z"/>
<path d="M6937 6193 c-15 -14 -5 -20 30 -19 28 1 38 -3 41 -16 3 -14 -3 -18
-23 -18 -39 0 -65 -18 -65 -44 0 -34 18 -44 74 -44 l48 1 -4 58 c-2 31 -10 64
-17 73 -13 16 -71 22 -84 9z m73 -86 c0 -32 -52 -51 -63 -23 -3 7 0 19 6 25
15 15 57 14 57 -2z"/>
<path d="M7062 6192 c2 -4 14 -38 27 -75 17 -45 30 -67 41 -67 11 0 24 22 41
67 13 37 26 71 27 75 2 4 -3 8 -11 8 -8 0 -22 -23 -32 -55 -11 -30 -22 -55
-25 -55 -4 0 -14 25 -24 55 -11 35 -23 55 -32 55 -9 0 -14 -4 -12 -8z"/>
<path d="M7241 6174 c-55 -69 10 -150 93 -118 30 12 16 25 -19 18 -37 -7 -65
7 -65 32 0 10 14 14 50 14 46 0 50 2 50 23 0 56 -73 76 -109 31z m77 -6 c21
-21 13 -28 -28 -28 -22 0 -40 4 -40 8 0 14 23 32 40 32 9 0 21 -5 28 -12z"/>
<path d="M11160 6140 c0 -27 3 -30 30 -30 27 0 30 3 30 30 0 27 -3 30 -30 30
-27 0 -30 -3 -30 -30z"/>
<path d="M11160 6020 c0 -27 3 -30 30 -30 27 0 30 3 30 30 0 27 -3 30 -30 30
-27 0 -30 -3 -30 -30z"/>
<path d="M3020 5960 c0 -27 3 -30 30 -30 27 0 30 3 30 30 0 27 -3 30 -30 30
-27 0 -30 -3 -30 -30z"/>
<path d="M8110 5940 l0 -40 -780 0 -780 0 0 -40 0 -40 780 0 780 0 0 -40 0
-40 115 57 c63 32 115 60 115 63 0 3 -52 31 -115 63 l-115 57 0 -40z"/>
<path d="M11160 5900 c0 -27 3 -30 30 -30 27 0 30 3 30 30 0 27 -3 30 -30 30
-27 0 -30 -3 -30 -30z"/>
<path d="M3020 5840 c0 -27 3 -30 30 -30 27 0 30 3 30 30 0 27 -3 30 -30 30
-27 0 -30 -3 -30 -30z"/>
<path d="M11160 5780 c0 -27 3 -30 30 -30 27 0 30 3 30 30 0 27 -3 30 -30 30
-27 0 -30 -3 -30 -30z"/>
<path d="M3020 5720 c0 -27 3 -30 30 -30 27 0 30 3 30 30 0 27 -3 30 -30 30
-27 0 -30 -3 -30 -30z"/>
<path d="M7 5723 c-4 -3 -7 -469 -7 -1034 l0 -1028 97 -31 c54 -17 154 -43
223 -57 110 -24 147 -27 315 -27 177 -1 198 1 299 28 119 31 197 59 446 164
91 38 209 83 262 101 180 57 414 95 648 104 l65 2 0 890 0 890 -1171 3 c-644
1 -1174 -1 -1177 -5z m2313 -886 l0 -854 -123 -6 c-320 -16 -526 -70 -937
-244 -304 -129 -382 -148 -620 -147 -192 0 -269 11 -475 66 l-120 33 -3 1003
-2 1002 1140 0 1140 0 0 -853z"/>
<path d="M1960 5588 c0 -40 -3 -49 -12 -40 -18 18 -53 15 -79 -7 -19 -15 -24
-29 -24 -64 0 -72 43 -105 98 -76 16 9 22 9 25 0 2 -6 8 -11 13 -11 5 0 9 56
9 125 0 104 -2 125 -15 125 -11 0 -15 -12 -15 -52z m-5 -113 c0 -27 -6 -41
-22 -52 -19 -13 -24 -12 -42 6 -12 12 -21 32 -21 46 0 14 9 34 21 46 18 18 23
19 42 6 16 -11 22 -25 22 -52z"/>
<path d="M397 5599 c-59 -46 -57 -163 3 -194 50 -26 120 -14 120 21 0 11 -4
12 -19 4 -31 -16 -76 -12 -95 9 -22 24 -23 93 -2 126 18 27 61 34 97 15 15 -8
19 -7 19 4 0 38 -82 48 -123 15z"/>
<path d="M582 5540 c-32 -30 -31 -112 0 -134 31 -22 80 -20 106 4 22 21 27 41
23 90 -4 55 -86 80 -129 40z m73 -6 c22 -9 37 -49 29 -80 -12 -47 -78 -52 -95
-7 -17 44 -1 74 48 92 1 1 9 -2 18 -5z"/>
<path d="M760 5475 c0 -68 3 -85 15 -85 10 0 15 16 17 61 2 50 7 64 24 76 35
23 54 -5 54 -78 0 -46 3 -59 15 -59 12 0 15 13 15 59 0 50 4 62 22 75 33 24
51 0 56 -74 6 -82 22 -76 22 9 0 94 -31 125 -87 86 -18 -13 -22 -13 -33 0 -15
17 -43 19 -71 5 -13 -7 -19 -7 -19 0 0 5 -7 10 -15 10 -12 0 -15 -16 -15 -85z"/>
<path d="M1060 5445 c0 -96 3 -115 15 -115 11 0 15 11 15 40 0 37 2 40 19 30
54 -28 101 8 101 77 0 67 -47 101 -101 73 -13 -7 -19 -7 -19 0 0 5 -7 10 -15
10 -12 0 -15 -19 -15 -115z m104 79 c23 -22 20 -77 -4 -99 -18 -17 -21 -17
-45 -1 -33 22 -35 78 -3 100 28 20 33 20 52 0z"/>
<path d="M1275 5535 c-52 -51 -16 -145 55 -145 44 0 80 39 80 85 0 46 -36 85
-80 85 -19 0 -40 -9 -55 -25z m83 -11 c32 -22 30 -78 -3 -100 -23 -15 -27 -15
-50 0 -33 22 -35 78 -3 100 12 9 25 16 28 16 3 0 16 -7 28 -16z"/>
<path d="M1460 5491 c0 -92 31 -123 91 -91 13 7 19 7 19 0 0 -5 7 -10 15 -10
12 0 15 16 15 85 0 69 -3 85 -15 85 -12 0 -15 -13 -15 -60 0 -53 -3 -61 -25
-76 -39 -26 -55 -5 -55 72 0 50 -3 64 -15 64 -12 0 -15 -14 -15 -69z"/>
<path d="M1660 5475 c0 -50 4 -85 10 -85 6 0 10 24 10 53 0 54 12 80 42 90 27
10 48 -30 48 -90 0 -30 5 -53 10 -53 7 0 10 28 8 77 -3 75 -4 78 -31 87 -20 8
-34 7 -50 -3 -15 -10 -22 -10 -25 -2 -2 6 -8 11 -13 11 -5 0 -9 -38 -9 -85z"/>
<path d="M1970 5130 c0 -11 -7 -20 -15 -20 -8 0 -15 -4 -15 -9 0 -5 7 -11 15
-15 11 -4 15 -21 15 -64 0 -32 5 -63 12 -70 18 -18 58 -15 58 3 0 10 -7 15
-17 13 -15 -3 -18 6 -21 60 -3 57 -1 62 18 62 11 0 20 5 20 10 0 6 -9 10 -20
10 -13 0 -20 7 -20 20 0 11 -7 20 -15 20 -8 0 -15 -9 -15 -20z"/>
<path d="M345 5085 c-50 -49 -21 -145 43 -145 29 0 71 24 61 34 -3 4 -18 2
-31 -3 -37 -14 -68 10 -68 54 0 43 31 68 66 55 18 -7 24 -6 24 4 0 33 -63 34
-95 1z"/>
<path d="M506 5089 c-21 -17 -26 -29 -26 -65 0 -55 25 -84 74 -84 47 0 76 27
83 77 5 35 2 45 -20 67 -32 32 -74 34 -111 5z m84 -19 c26 -26 26 -64 -1 -91
-21 -21 -56 -19 -71 5 -16 24 -8 75 14 90 29 20 34 20 58 -4z"/>
<path d="M690 5025 c0 -50 4 -85 10 -85 6 0 10 25 10 55 0 66 26 103 60 85 17
-9 20 -21 20 -75 0 -50 3 -65 15 -65 10 0 15 16 17 61 2 50 7 64 24 76 35 23
54 -5 54 -78 0 -46 3 -59 15 -59 16 0 21 59 9 120 -9 43 -46 60 -83 39 -22
-13 -29 -13 -39 -2 -16 16 -54 17 -71 1 -11 -10 -14 -10 -18 0 -13 35 -23 3
-23 -73z"/>
<path d="M980 4995 c0 -96 3 -115 15 -115 11 0 15 11 15 40 0 37 2 40 19 30
54 -28 101 8 101 77 0 67 -47 101 -101 73 -13 -7 -19 -7 -19 0 0 5 -7 10 -15
10 -12 0 -15 -19 -15 -115z m104 79 c23 -22 20 -77 -4 -99 -18 -17 -21 -17
-45 -1 -33 22 -35 78 -3 100 28 20 33 20 52 0z"/>
<path d="M1200 5092 c-13 -10 -23 -33 -27 -59 -5 -35 -2 -45 20 -67 32 -32 74
-34 111 -5 34 27 37 98 6 129 -25 25 -80 26 -110 2z m92 -26 c16 -24 8 -75
-14 -90 -29 -20 -34 -20 -58 4 -26 26 -26 64 1 91 21 21 56 19 71 -5z"/>
<path d="M1380 5025 c0 -69 3 -85 15 -85 12 0 15 13 15 59 0 50 4 62 22 75 15
11 26 12 40 5 15 -8 18 -22 18 -74 0 -51 3 -65 15 -65 24 0 21 131 -3 153 -21
19 -45 21 -73 7 -13 -7 -19 -7 -19 0 0 5 -7 10 -15 10 -12 0 -15 -16 -15 -85z"/>
<path d="M1596 5089 c-35 -27 -37 -98 -4 -129 21 -20 70 -26 102 -14 31 12 16
22 -29 21 -31 -1 -49 3 -55 13 -20 31 -11 39 48 42 54 3 57 4 54 28 -3 30 -36
60 -67 60 -12 0 -34 -9 -49 -21z m78 -15 c26 -25 19 -34 -29 -34 -48 0 -62 19
-27 39 24 15 38 13 56 -5z"/>
<path d="M1770 5025 c0 -50 4 -85 10 -85 6 0 10 24 10 53 0 54 12 80 42 90 27
10 48 -30 48 -90 0 -30 5 -53 10 -53 7 0 10 28 8 77 -3 75 -4 78 -31 87 -20 8
-34 7 -50 -3 -15 -10 -22 -10 -25 -2 -2 6 -8 11 -13 11 -5 0 -9 -38 -9 -85z"/>
<path d="M460 4688 c0 -40 -3 -49 -12 -40 -18 18 -53 15 -79 -7 -19 -15 -24
-29 -24 -64 0 -72 43 -105 98 -76 16 9 22 9 25 0 2 -6 8 -11 13 -11 5 0 9 56
9 125 0 104 -2 125 -15 125 -11 0 -15 -12 -15 -52z m-5 -113 c0 -27 -6 -41
-22 -52 -19 -13 -24 -12 -42 6 -12 12 -21 32 -21 46 0 14 9 34 21 46 18 18 23
19 42 6 16 -11 22 -25 22 -52z"/>
<path d="M1170 4705 c0 -8 7 -15 15 -15 8 0 15 7 15 15 0 8 -7 15 -15 15 -8 0
-15 -7 -15 -15z"/>
<path d="M1580 4705 c0 -8 7 -15 15 -15 8 0 15 7 15 15 0 8 -7 15 -15 15 -8 0
-15 -7 -15 -15z"/>
<path d="M1460 4680 c0 -11 -7 -20 -15 -20 -8 0 -15 -4 -15 -10 0 -5 7 -10 15
-10 12 0 15 -13 15 -59 0 -42 5 -64 16 -76 19 -19 55 -16 62 4 3 10 0 12 -11
8 -25 -9 -38 18 -35 70 3 41 6 48 26 51 30 5 28 22 -3 22 -18 0 -25 5 -25 20
0 11 -7 20 -15 20 -8 0 -15 -9 -15 -20z"/>
<path d="M565 4635 c-68 -67 8 -174 99 -139 29 11 17 27 -16 20 -35 -7 -78 15
-78 39 0 12 14 15 60 15 48 0 60 3 60 16 0 19 -19 56 -34 66 -23 16 -67 8 -91
-17z m76 -5 c36 -20 23 -40 -26 -40 -48 0 -55 9 -29 34 18 19 28 20 55 6z"/>
<path d="M748 4649 c-10 -5 -18 -21 -18 -34 0 -19 10 -30 40 -45 60 -30 46
-73 -16 -50 -22 9 -25 7 -22 -7 5 -26 64 -30 89 -7 28 26 20 56 -21 76 -47 24
-48 54 -2 51 21 -1 32 3 29 10 -5 16 -57 20 -79 6z"/>
<path d="M900 4640 c-30 -30 -28 -113 2 -134 36 -26 98 -18 98 11 0 10 -6 13
-15 9 -8 -3 -21 -8 -28 -11 -25 -10 -51 21 -51 60 0 39 26 70 51 60 7 -3 20
-8 28 -11 9 -4 15 -1 15 9 0 32 -70 37 -100 7z"/>
<path d="M1040 4575 c0 -69 3 -85 15 -85 11 0 15 12 15 51 0 63 13 89 45 89
14 0 25 5 25 10 0 17 -27 22 -49 10 -14 -7 -21 -7 -21 0 0 5 -7 10 -15 10 -12
0 -15 -16 -15 -85z"/>
<path d="M1170 4575 c0 -69 3 -85 15 -85 12 0 15 16 15 85 0 69 -3 85 -15 85
-12 0 -15 -16 -15 -85z"/>
<path d="M1260 4545 c0 -96 3 -115 15 -115 11 0 15 11 15 40 0 37 2 40 19 30
32 -17 58 -12 80 16 54 69 -2 169 -75 135 -15 -6 -24 -7 -24 -1 0 6 -7 10 -15
10 -12 0 -15 -19 -15 -115z m116 50 c13 -54 -25 -96 -64 -69 -15 10 -22 26
-22 49 0 64 71 81 86 20z"/>
<path d="M1580 4575 c0 -69 3 -85 15 -85 12 0 15 16 15 85 0 69 -3 85 -15 85
-12 0 -15 -16 -15 -85z"/>
<path d="M1686 4639 c-21 -17 -26 -29 -26 -65 0 -55 25 -84 74 -84 47 0 76 27
83 77 5 35 2 45 -20 67 -32 32 -74 34 -111 5z m84 -19 c26 -26 26 -64 -1 -91
-21 -21 -56 -19 -71 5 -16 24 -8 75 14 90 29 20 34 20 58 -4z"/>
<path d="M1870 4575 c0 -50 4 -85 10 -85 6 0 10 24 10 53 0 54 12 80 42 90 27
10 48 -30 48 -90 0 -30 5 -53 10 -53 7 0 10 28 8 77 -3 75 -4 78 -31 87 -20 8
-34 7 -50 -3 -15 -10 -22 -10 -25 -2 -2 6 -8 11 -13 11 -5 0 -9 -38 -9 -85z"/>
<path d="M686 4253 c-31 -90 -10 -273 31 -273 11 0 13 5 8 18 -5 9 -14 45 -22
80 -11 52 -11 72 0 125 8 34 17 70 22 80 5 12 3 17 -8 17 -9 0 -21 -19 -31
-47z"/>
<path d="M1630 4298 c0 -1 7 -25 15 -52 19 -62 19 -149 0 -211 -16 -54 -11
-71 11 -40 22 30 34 84 33 150 0 63 -25 145 -46 153 -7 2 -13 2 -13 0z"/>
<path d="M795 4200 c25 -49 35 -83 35 -115 0 -33 4 -45 15 -45 11 0 15 12 15
45 0 32 10 66 35 115 27 54 32 70 20 70 -9 0 -27 -24 -42 -55 l-27 -56 -28 56
c-16 30 -35 55 -43 55 -12 0 -7 -17 20 -70z"/>
<path d="M989 4243 c-31 -80 -69 -188 -69 -195 0 -21 27 -5 37 22 10 28 15 30
60 30 45 0 49 -2 60 -30 6 -16 18 -30 27 -30 13 0 9 18 -20 98 -20 53 -38 105
-41 115 -8 27 -42 21 -54 -10z m61 -105 c0 -14 -8 -18 -35 -18 -40 0 -40 0
-18 66 l17 49 18 -40 c9 -22 18 -48 18 -57z"/>
<path d="M1160 4155 c0 -94 3 -115 15 -115 11 0 15 19 17 92 l3 92 35 -89 c20
-50 42 -91 50 -93 10 -2 28 28 55 95 l40 98 3 -97 c2 -78 6 -98 17 -98 12 0
15 21 15 115 0 115 0 115 -24 115 -21 0 -29 -12 -62 -90 -21 -49 -41 -87 -45
-82 -3 4 -21 44 -39 90 -28 71 -36 82 -56 82 -24 0 -24 0 -24 -115z"/>
<path d="M1480 4155 l0 -115 61 0 c44 0 60 3 57 13 -3 6 -23 13 -46 15 l-42 3
0 100 c0 81 -3 99 -15 99 -12 0 -15 -19 -15 -115z"/>
<path d="M11160 5660 c0 -27 3 -30 30 -30 27 0 30 3 30 30 0 27 -3 30 -30 30
-27 0 -30 -3 -30 -30z"/>
<path d="M3020 5600 c0 -27 3 -30 30 -30 27 0 30 3 30 30 0 27 -3 30 -30 30
-27 0 -30 -3 -30 -30z"/>
<path d="M11160 5540 c0 -27 3 -30 30 -30 27 0 30 3 30 30 0 27 -3 30 -30 30
-27 0 -30 -3 -30 -30z"/>
<path d="M3020 5480 c0 -27 3 -30 30 -30 27 0 30 3 30 30 0 27 -3 30 -30 30
-27 0 -30 -3 -30 -30z"/>
<path d="M11160 5420 c0 -27 3 -30 30 -30 27 0 30 3 30 30 0 27 -3 30 -30 30
-27 0 -30 -3 -30 -30z"/>
<path d="M3020 5360 c0 -27 3 -30 30 -30 27 0 30 3 30 30 0 27 -3 30 -30 30
-27 0 -30 -3 -30 -30z"/>
<path d="M11160 5300 c0 -27 3 -30 30 -30 27 0 30 3 30 30 0 27 -3 30 -30 30
-27 0 -30 -3 -30 -30z"/>
<path d="M3020 5240 c0 -27 3 -30 30 -30 27 0 30 3 30 30 0 27 -3 30 -30 30
-27 0 -30 -3 -30 -30z"/>
<path d="M8780 5015 l0 -255 -40 0 -40 0 57 -115 c32 -63 60 -115 63 -115 3 0
31 52 63 115 l57 115 -40 0 -40 0 0 255 0 255 -40 0 -40 0 0 -255z"/>
<path d="M9160 5015 l0 -255 -35 0 c-19 0 -35 -4 -35 -10 0 -13 103 -220 110
-220 3 0 31 52 63 115 l57 115 -40 0 -40 0 0 255 0 255 -40 0 -40 0 0 -255z"/>
<path d="M9520 5015 l0 -255 -40 0 -40 0 57 -115 c32 -63 60 -115 63 -115 3 0
31 52 63 115 l57 115 -40 0 -40 0 0 255 0 255 -40 0 -40 0 0 -255z"/>
<path d="M11160 5180 c0 -27 3 -30 30 -30 27 0 30 3 30 30 0 27 -3 30 -30 30
-27 0 -30 -3 -30 -30z"/>
<path d="M3020 5120 c0 -27 3 -30 30 -30 27 0 30 3 30 30 0 27 -3 30 -30 30
-27 0 -30 -3 -30 -30z"/>
<path d="M11160 5060 c0 -27 3 -30 30 -30 27 0 30 3 30 30 0 27 -3 30 -30 30
-27 0 -30 -3 -30 -30z"/>
<path d="M3020 5000 c0 -27 3 -30 30 -30 27 0 30 3 30 30 0 27 -3 30 -30 30
-27 0 -30 -3 -30 -30z"/>
<path d="M11160 4940 c0 -27 3 -30 30 -30 27 0 30 3 30 30 0 27 -3 30 -30 30
-27 0 -30 -3 -30 -30z"/>
<path d="M12352 4903 c-25 -117 -25 -120 -3 -142 27 -27 73 -27 106 2 19 16
30 40 40 87 17 77 18 100 6 100 -9 0 -12 -10 -31 -103 -14 -70 -44 -97 -87
-78 -27 13 -28 24 -7 144 10 55 -12 46 -24 -10z"/>
<path d="M13047 4944 c-8 -8 1 -24 14 -24 5 0 9 7 9 15 0 15 -12 20 -23 9z"/>
<path d="M13640 4910 c0 -11 -7 -20 -15 -20 -17 0 -20 -17 -4 -22 7 -2 7 -18
-1 -52 -8 -36 -8 -52 1 -62 13 -16 49 -19 49 -4 0 6 -7 10 -15 10 -16 0 -18
15 -9 73 6 31 11 37 30 37 13 0 24 5 24 10 0 6 -10 10 -21 10 -16 0 -20 5 -16
20 3 13 0 20 -9 20 -8 0 -14 -9 -14 -20z"/>
<path d="M3020 4880 c0 -27 3 -30 30 -30 27 0 30 3 30 30 0 27 -3 30 -30 30
-27 0 -30 -3 -30 -30z"/>
<path d="M12561 4871 c-28 -28 -26 -39 9 -59 42 -23 35 -47 -13 -46 -42 1 -50
-12 -11 -22 63 -16 105 52 49 78 -34 15 -28 43 8 43 31 -1 31 18 -1 23 -11 2
-30 -6 -41 -17z"/>
<path d="M12704 4875 c-28 -19 -48 -69 -40 -100 7 -28 41 -41 81 -31 37 9 30
21 -12 21 -32 0 -39 4 -41 23 -3 18 1 22 22 22 45 0 76 18 76 44 0 37 -48 49
-86 21z m61 -25 c0 -10 -13 -16 -40 -18 l-39 -3 19 21 c21 23 60 23 60 0z"/>
<path d="M12845 4868 c-27 -120 -28 -137 -7 -124 5 3 12 24 16 46 6 41 39 85
56 75 5 -3 11 -1 15 5 10 16 -23 24 -40 10 -10 -9 -15 -9 -15 -1 0 20 -20 11
-25 -11z"/>
<path d="M13035 4868 c-26 -118 -28 -146 -6 -122 7 8 31 112 31 136 0 18 -20
7 -25 -14z"/>
<path d="M13101 4833 c-13 -68 -14 -93 -2 -93 5 0 12 18 16 41 9 50 45 95 70
86 17 -7 17 -26 -2 -104 -3 -13 0 -23 5 -23 13 0 32 63 32 107 0 37 -26 51
-62 32 -16 -9 -23 -9 -26 0 -8 25 -20 8 -31 -46z"/>
<path d="M13285 4878 c-7 -22 -35 -169 -35 -184 0 -30 19 -12 25 25 6 38 7 39
36 28 26 -10 32 -9 56 15 19 20 26 37 27 68 1 56 -21 72 -65 47 -26 -14 -30
-15 -25 -2 3 8 1 15 -5 15 -5 0 -11 -6 -14 -12z m83 -49 c4 -43 -25 -75 -57
-64 -27 8 -27 44 0 79 29 37 53 30 57 -15z"/>
<path d="M13443 4833 c-16 -88 1 -107 71 -78 15 6 17 5 11 -5 -5 -8 -3 -11 6
-8 14 5 45 135 34 146 -9 10 -22 -16 -29 -58 -7 -42 -37 -75 -62 -66 -13 5
-15 15 -9 52 3 26 9 53 12 60 3 8 -1 14 -9 14 -10 0 -18 -19 -25 -57z"/>
<path d="M11160 4820 c0 -27 3 -30 30 -30 27 0 30 3 30 30 0 27 -3 30 -30 30
-27 0 -30 -3 -30 -30z"/>
<path d="M5737 4685 l-57 -115 40 0 40 0 0 -150 0 -150 40 0 40 0 0 150 0 150
40 0 40 0 -57 115 c-32 63 -60 115 -63 115 -3 0 -31 -52 -63 -115z"/>
<path d="M3020 4760 c0 -27 3 -30 30 -30 27 0 30 3 30 30 0 27 -3 30 -30 30
-27 0 -30 -3 -30 -30z"/>
<path d="M3950 4650 l0 -130 -35 0 c-19 0 -35 -3 -35 -7 0 -14 103 -233 109
-233 10 0 120 227 114 234 -4 3 -21 6 -40 6 l-33 0 0 130 0 130 -40 0 -40 0 0
-130z"/>
<path d="M11160 4700 c0 -27 3 -30 30 -30 27 0 30 3 30 30 0 27 -3 30 -30 30
-27 0 -30 -3 -30 -30z"/>
<path d="M3020 4640 c0 -27 3 -30 30 -30 27 0 30 3 30 30 0 27 -3 30 -30 30
-27 0 -30 -3 -30 -30z"/>
<path d="M11160 4580 c0 -27 3 -30 30 -30 27 0 30 3 30 30 0 27 -3 30 -30 30
-27 0 -30 -3 -30 -30z"/>
<path d="M3020 4520 c0 -27 3 -30 30 -30 27 0 30 3 30 30 0 27 -3 30 -30 30
-27 0 -30 -3 -30 -30z"/>
<path d="M11747 4493 c-4 -3 -7 -318 -7 -699 0 -668 1 -694 19 -703 10 -6 37
-13 60 -17 l41 -7 0 -118 0 -118 42 -12 c24 -6 97 -22 163 -34 375 -73 626
-57 1000 61 443 139 647 178 990 187 l80 2 0 650 0 650 -57 3 -57 3 -3 77 -3
77 -1131 3 c-622 1 -1134 -1 -1137 -5z m2233 -93 l0 -60 -1057 -2 -1058 -3 -3
-612 c-1 -338 -6 -613 -11 -613 -5 0 -23 3 -40 6 l-31 7 0 668 0 669 1100 0
1100 0 0 -60z m120 -713 l0 -614 -152 -6 c-256 -12 -471 -51 -733 -133 -424
-134 -493 -148 -740 -148 -99 0 -216 6 -260 13 -88 14 -270 49 -297 57 -17 5
-18 48 -18 725 l0 719 1100 0 1100 0 0 -613z"/>
<path d="M12589 4213 c-31 -80 -69 -188 -69 -195 0 -21 27 -5 37 22 10 28 15
30 60 30 45 0 49 -2 60 -30 6 -16 18 -30 27 -30 13 0 9 18 -20 98 -20 53 -38
105 -41 115 -8 27 -42 21 -54 -10z m61 -105 c0 -14 -8 -18 -35 -18 -40 0 -40
0 -18 66 l17 49 18 -40 c9 -22 18 -48 18 -57z"/>
<path d="M13040 4225 c0 -8 7 -15 15 -15 8 0 15 7 15 15 0 8 -7 15 -15 15 -8
0 -15 -7 -15 -15z"/>
<path d="M12920 4200 c0 -11 -7 -20 -15 -20 -8 0 -15 -4 -15 -10 0 -5 7 -10
15 -10 12 0 15 -14 15 -64 0 -43 5 -67 14 -76 18 -14 58 -10 64 8 2 7 -2 13
-9 11 -35 -4 -39 1 -39 61 0 57 1 60 25 60 14 0 25 5 25 10 0 6 -11 10 -25 10
-18 0 -25 5 -25 20 0 11 -7 20 -15 20 -8 0 -15 -9 -15 -20z"/>
<path d="M12770 4160 c-30 -30 -28 -113 2 -134 36 -26 98 -18 98 11 0 10 -6
13 -15 9 -8 -3 -21 -8 -28 -11 -25 -10 -51 21 -51 60 0 39 26 70 51 60 7 -3
20 -8 28 -11 9 -4 15 -1 15 9 0 32 -70 37 -100 7z"/>
<path d="M13040 4095 c0 -69 3 -85 15 -85 12 0 15 16 15 85 0 69 -3 85 -15 85
-12 0 -15 -16 -15 -85z"/>
<path d="M13142 4160 c-32 -30 -31 -112 0 -134 31 -22 80 -20 106 4 22 21 27
41 23 90 -4 55 -86 80 -129 40z m73 -6 c22 -9 37 -49 29 -80 -12 -47 -78 -52
-95 -7 -17 44 -1 74 48 92 1 1 9 -2 18 -5z"/>
<path d="M13320 4095 c0 -69 3 -85 15 -85 12 0 15 13 15 59 0 50 4 62 22 75
15 11 26 12 40 5 15 -8 18 -22 18 -74 0 -51 3 -65 15 -65 22 0 21 132 -1 154
-18 18 -47 20 -75 6 -13 -7 -19 -7 -19 0 0 5 -7 10 -15 10 -12 0 -15 -16 -15
-85z"/>
<path d="M13280 3750 c0 -11 -7 -20 -15 -20 -8 0 -15 -4 -15 -9 0 -5 7 -11 15
-15 11 -4 15 -22 15 -70 0 -49 4 -65 16 -70 29 -11 54 -6 54 10 0 10 -6 14
-15 10 -21 -8 -37 28 -33 77 2 35 7 43 26 45 30 5 28 22 -3 22 -18 0 -25 5
-25 20 0 11 -4 20 -10 20 -5 0 -10 -9 -10 -20z"/>
<path d="M12535 3705 c-50 -49 -21 -145 43 -145 29 0 71 24 61 34 -3 4 -18 2
-31 -3 -37 -14 -68 10 -68 54 0 43 31 68 66 55 18 -7 24 -6 24 4 0 33 -63 34
-95 1z"/>
<path d="M12696 3709 c-21 -17 -26 -29 -26 -65 0 -55 25 -84 74 -84 47 0 76
27 83 77 5 35 2 45 -20 67 -32 32 -74 34 -111 5z m84 -19 c26 -26 26 -64 -1
-91 -21 -21 -56 -19 -71 5 -16 24 -8 75 14 90 29 20 34 20 58 -4z"/>
<path d="M12882 3653 c3 -75 4 -78 31 -87 20 -8 34 -7 50 3 15 10 22 10 25 2
2 -6 8 -11 13 -11 5 0 9 38 9 85 0 50 -4 85 -10 85 -5 0 -10 -24 -10 -53 0
-54 -12 -80 -41 -90 -30 -10 -43 10 -47 77 -6 93 -23 83 -20 -11z"/>
<path d="M13070 3645 c0 -69 3 -85 15 -85 12 0 15 13 15 59 0 50 4 62 22 75
15 11 26 12 40 5 15 -8 18 -22 18 -74 0 -51 3 -65 15 -65 22 0 21 132 -1 154
-18 18 -47 20 -75 6 -13 -7 -19 -7 -19 0 0 5 -7 10 -15 10 -12 0 -15 -16 -15
-85z"/>
<path d="M13396 3709 c-19 -28 -6 -57 35 -72 16 -6 31 -17 33 -24 8 -20 -29
-35 -58 -23 -21 7 -26 6 -26 -5 0 -19 46 -30 79 -19 19 7 27 17 29 40 3 26 -2
33 -27 44 -17 7 -36 19 -43 27 -16 20 8 35 45 28 20 -3 27 -1 25 8 -3 6 -21
13 -40 15 -28 2 -40 -2 -52 -19z"/>
<path d="M12514 3338 c-34 -66 -28 -221 10 -273 22 -31 27 -14 11 40 -19 62
-19 149 0 211 18 59 17 54 5 54 -5 0 -17 -15 -26 -32z"/>
<path d="M13455 3353 c20 -49 26 -84 26 -143 0 -59 -6 -94 -26 -142 -5 -13 -2
-18 8 -18 23 0 47 83 47 160 0 77 -24 160 -47 160 -10 0 -13 -5 -8 -17z"/>
<path d="M12615 3270 c25 -49 35 -83 35 -115 0 -33 4 -45 15 -45 11 0 15 11
15 40 0 26 12 65 35 110 40 80 40 80 20 80 -9 0 -26 -24 -41 -57 l-25 -58 -26
58 c-18 40 -32 57 -45 57 -16 0 -14 -7 17 -70z"/>
<path d="M12815 3323 c-14 -37 -75 -206 -75 -209 0 -2 6 -4 14 -4 8 0 19 14
25 30 9 28 13 30 60 30 46 0 50 -2 60 -30 5 -16 17 -30 25 -30 9 0 16 2 16 5
0 2 -19 54 -41 115 -31 83 -46 110 -59 110 -10 0 -21 -8 -25 -17z m46 -78 c9
-24 14 -46 11 -49 -8 -9 -72 -7 -72 2 0 16 34 101 39 96 3 -3 13 -25 22 -49z"/>
<path d="M12980 3226 c0 -95 3 -116 15 -116 11 0 15 20 17 97 l3 97 36 -94
c21 -55 42 -96 51 -98 10 -2 27 26 56 95 l41 98 0 -97 c1 -80 4 -98 16 -98 12
0 15 20 15 116 0 112 -1 115 -21 112 -25 -3 -27 -7 -72 -108 l-33 -74 -36 89
c-31 78 -39 90 -62 93 l-26 3 0 -115z"/>
<path d="M13300 3225 l0 -115 60 0 c47 0 60 3 60 15 0 11 -12 15 -45 15 l-45
0 0 100 c0 82 -3 100 -15 100 -12 0 -15 -19 -15 -115z"/>
<path d="M11160 4460 c0 -27 3 -30 30 -30 27 0 30 3 30 30 0 27 -3 30 -30 30
-27 0 -30 -3 -30 -30z"/>
<path d="M3020 4400 c0 -27 3 -30 30 -30 27 0 30 3 30 30 0 27 -3 30 -30 30
-27 0 -30 -3 -30 -30z"/>
<path d="M8600 3565 l0 -835 1145 0 1145 0 0 835 0 835 -1145 0 -1145 0 0
-835z m2270 0 l0 -815 -1125 0 -1125 0 0 815 0 815 1125 0 1125 0 0 -815z"/>
<path d="M9204 3927 c-2 -7 -3 -67 -2 -133 l3 -119 73 -3 c59 -2 72 0 72 13 0
12 -12 15 -55 15 l-55 0 0 50 0 50 51 0 c66 0 62 24 -4 28 l-47 3 0 40 0 39
55 0 c42 0 55 3 55 15 0 20 -138 22 -146 2z"/>
<path d="M9404 3857 c-3 -8 -4 -51 -2 -98 3 -70 6 -84 21 -87 15 -3 17 5 17
66 0 54 4 72 18 85 46 42 72 10 72 -87 0 -52 3 -66 15 -66 24 0 21 161 -3 183
-21 19 -54 22 -82 7 -13 -7 -21 -7 -25 0 -9 14 -25 12 -31 -3z"/>
<path d="M9645 3847 c-20 -16 -28 -35 -32 -69 -5 -42 -3 -50 25 -78 30 -30 76
-39 116 -24 34 13 16 29 -29 26 -50 -4 -75 9 -75 39 0 17 8 19 65 19 l65 0 0
30 c0 69 -82 103 -135 57z m95 -26 c15 -30 14 -31 -40 -31 -34 0 -50 4 -50 13
0 38 71 52 90 18z"/>
<path d="M9830 3769 c0 -90 2 -100 18 -97 14 3 18 17 22 76 5 74 15 92 53 92
9 0 17 7 17 15 0 20 -39 19 -62 -2 -17 -15 -18 -15 -18 0 0 10 -7 17 -15 17
-12 0 -15 -18 -15 -101z"/>
<path d="M9980 3850 c-16 -16 -19 -31 -16 -95 1 -42 -1 -78 -6 -81 -16 -10 -8
-43 14 -58 12 -9 41 -16 63 -16 53 0 85 23 85 60 0 35 -8 41 -73 49 -38 4 -53
11 -55 23 -3 14 3 16 32 11 28 -4 39 -1 61 21 20 20 25 33 21 50 -4 16 -1 26
10 30 31 12 1 26 -57 26 -45 0 -64 -5 -79 -20z m85 -45 c0 -27 -3 -30 -30 -30
-21 0 -31 5 -33 18 -6 33 6 49 35 45 24 -3 28 -8 28 -33z m22 -141 c8 -20 -13
-34 -54 -34 -34 0 -48 12 -39 35 8 21 85 20 93 -1z"/>
<path d="M10140 3868 c0 -2 16 -46 35 -98 33 -88 36 -110 19 -154 -7 -18 21
-23 31 -6 6 10 95 250 95 257 0 2 -8 3 -18 3 -14 0 -24 -18 -42 -75 -13 -42
-27 -72 -30 -68 -4 5 -18 38 -30 76 -18 49 -28 67 -42 67 -10 0 -18 -1 -18 -2z"/>
<path d="M9320 3310 c0 -129 1 -141 18 -138 15 3 17 18 17 138 0 120 -2 135
-17 138 -17 3 -18 -9 -18 -138z"/>
<path d="M9810 3310 c0 -133 1 -140 20 -140 19 0 20 7 20 140 0 133 -1 140
-20 140 -19 0 -20 -7 -20 -140z"/>
<path d="M10117 3413 c-4 -3 -7 -15 -7 -25 0 -10 -7 -18 -15 -18 -8 0 -15 -7
-15 -15 0 -8 7 -15 15 -15 12 0 15 -14 15 -63 0 -76 18 -107 61 -107 21 0 29
5 29 18 0 13 -7 18 -22 18 -21 -1 -23 4 -26 67 -3 66 -3 67 23 67 16 0 25 6
25 15 0 9 -9 15 -25 15 -20 0 -25 5 -25 25 0 24 -18 34 -33 18z"/>
<path d="M8967 3350 c-15 -12 -29 -36 -33 -55 -7 -42 11 -102 36 -115 40 -22
110 -5 110 26 0 12 -5 14 -17 9 -61 -26 -93 -7 -93 54 0 62 32 81 93 56 24
-10 23 21 -2 35 -30 16 -66 12 -94 -10z"/>
<path d="M9138 3359 c-10 -5 -18 -17 -18 -24 0 -17 16 -20 25 -5 11 18 64 11
75 -9 15 -29 13 -31 -21 -31 -53 0 -89 -26 -89 -66 0 -43 56 -68 101 -44 13 7
19 7 19 0 0 -5 7 -10 15 -10 12 0 15 16 15 84 0 76 -2 86 -22 100 -25 18 -74
20 -100 5z m90 -121 c-4 -31 -52 -48 -74 -26 -14 14 -14 17 1 32 9 9 30 16 46
16 26 0 30 -3 27 -22z"/>
<path d="M9443 3355 c-44 -31 -49 -119 -10 -162 32 -35 117 -26 117 12 0 17
-16 20 -25 5 -11 -18 -53 -11 -69 12 -32 46 -8 118 39 118 13 0 27 -4 30 -10
9 -15 25 -12 25 5 0 33 -70 46 -107 20z"/>
<path d="M9594 3355 c-13 -32 1 -143 20 -164 20 -22 61 -27 86 -11 9 6 17 5
21 -2 4 -6 14 -8 23 -5 14 6 16 21 14 99 -3 79 -6 93 -20 96 -16 3 -18 -5 -18
-66 0 -71 -16 -102 -51 -102 -30 0 -39 24 -39 97 0 59 -3 73 -15 73 -9 0 -18
-7 -21 -15z"/>
<path d="M9928 3359 c-10 -5 -18 -17 -18 -24 0 -17 16 -20 25 -5 11 18 64 11
75 -9 15 -29 13 -31 -21 -31 -53 0 -89 -26 -89 -66 0 -43 56 -68 101 -44 13 7
19 7 19 0 0 -5 7 -10 15 -10 12 0 15 16 15 84 0 76 -2 86 -22 100 -25 18 -74
20 -100 5z m90 -121 c-4 -31 -52 -48 -74 -26 -14 14 -14 17 1 32 9 9 30 16 46
16 26 0 30 -3 27 -22z"/>
<path d="M10259 3341 c-33 -34 -39 -83 -14 -130 16 -32 33 -41 76 -41 43 0 69
17 85 56 44 105 -68 193 -147 115z m105 -23 c32 -46 8 -118 -39 -118 -35 0
-55 26 -55 70 0 22 7 45 16 54 22 23 60 20 78 -6z"/>
<path d="M10460 3269 c0 -90 2 -100 18 -97 14 3 18 17 22 76 5 74 15 92 53 92
9 0 17 7 17 15 0 18 -41 20 -59 3 -11 -10 -14 -10 -18 0 -3 6 -11 12 -19 12
-11 0 -14 -20 -14 -101z"/>
<path d="M11160 4340 c0 -27 3 -30 30 -30 27 0 30 3 30 30 0 27 -3 30 -30 30
-27 0 -30 -3 -30 -30z"/>
<path d="M3020 4280 c0 -27 3 -30 30 -30 27 0 30 3 30 30 0 27 -3 30 -30 30
-27 0 -30 -3 -30 -30z"/>
<path d="M11160 4220 c0 -27 3 -30 30 -30 27 0 30 3 30 30 0 27 -3 30 -30 30
-27 0 -30 -3 -30 -30z"/>
<path d="M3020 4160 c0 -27 3 -30 30 -30 27 0 30 3 30 30 0 27 -3 30 -30 30
-27 0 -30 -3 -30 -30z"/>
<path d="M3320 3455 l0 -725 1585 0 1585 0 0 725 0 725 -1585 0 -1585 0 0
-725z m3150 0 l0 -705 -1565 0 -1565 0 0 705 0 705 1565 0 1565 0 0 -705z"/>
<path d="M4581 4010 c-16 -9 -6 -30 15 -30 15 0 20 25 6 34 -4 2 -14 1 -21 -4z"/>
<path d="M4963 4004 c-7 -19 2 -28 22 -21 19 8 19 23 0 31 -9 3 -18 -1 -22
-10z"/>
<path d="M5173 4004 c-7 -19 2 -28 22 -21 19 8 19 23 0 31 -9 3 -18 -1 -22
-10z"/>
<path d="M4260 3895 c0 -96 3 -115 15 -115 11 0 15 12 15 45 0 43 1 45 29 45
43 0 81 35 81 75 0 44 -29 65 -92 65 l-48 0 0 -115z m106 60 c8 -33 -11 -55
-47 -55 -27 0 -29 3 -29 40 0 39 1 40 35 40 29 0 36 -4 41 -25z"/>
<path d="M5053 3970 c-3 -11 -9 -20 -14 -20 -5 0 -9 -7 -9 -15 0 -8 4 -15 9
-15 5 0 11 -27 13 -61 3 -38 10 -64 19 -70 23 -14 59 -11 59 6 0 8 -9 15 -20
15 -18 0 -20 7 -20 55 0 48 2 55 20 55 11 0 20 7 20 15 0 8 -8 15 -19 15 -10
0 -21 9 -24 20 -3 11 -10 20 -17 20 -7 0 -14 -9 -17 -20z"/>
<path d="M4450 3865 c0 -69 3 -85 15 -85 12 0 15 13 15 58 0 60 11 82 42 82
10 0 18 7 18 15 0 17 -31 20 -47 4 -8 -8 -13 -8 -17 0 -18 28 -26 4 -26 -74z"/>
<path d="M4580 3865 c0 -69 3 -85 15 -85 12 0 15 16 15 85 0 69 -3 85 -15 85
-12 0 -15 -16 -15 -85z"/>
<path d="M4660 3865 c0 -69 3 -85 15 -85 12 0 15 13 15 58 0 62 11 82 46 82
27 0 34 -17 34 -86 0 -41 4 -54 15 -54 12 0 15 13 15 59 0 62 14 86 47 79 14
-3 19 -16 23 -68 4 -49 9 -65 20 -65 24 0 20 133 -5 151 -25 18 -60 18 -75 -1
-12 -14 -15 -14 -30 0 -19 18 -43 19 -71 5 -13 -7 -19 -7 -19 0 0 5 -7 10 -15
10 -12 0 -15 -16 -15 -85z"/>
<path d="M4960 3865 c0 -69 3 -85 15 -85 12 0 15 16 15 85 0 69 -3 85 -15 85
-12 0 -15 -16 -15 -85z"/>
<path d="M5170 3865 c0 -69 3 -85 15 -85 12 0 15 16 15 85 0 69 -3 85 -15 85
-12 0 -15 -16 -15 -85z"/>
<path d="M5240 3942 c0 -4 13 -41 29 -82 40 -105 57 -105 94 -3 31 89 32 93
14 93 -8 0 -22 -26 -32 -60 -10 -34 -21 -63 -25 -65 -4 -2 -17 25 -29 60 -14
38 -29 65 -37 65 -8 0 -14 -3 -14 -8z"/>
<path d="M5448 3940 c-9 -6 -22 -25 -28 -44 -21 -65 12 -116 76 -116 77 0 87
28 12 32 -46 3 -53 6 -56 25 -3 20 1 22 55 25 55 3 58 4 55 28 -6 48 -69 76
-114 50z m70 -22 c24 -24 13 -38 -28 -38 -43 0 -55 20 -22 39 23 14 36 13 50
-1z"/>
<path d="M4067 3539 c-31 -24 -50 -83 -41 -128 4 -17 20 -43 37 -57 26 -22 38
-25 75 -21 42 5 66 22 56 39 -3 4 -14 4 -24 -2 -58 -31 -110 5 -110 75 0 71
52 106 111 75 16 -9 19 -7 19 8 0 36 -83 43 -123 11z"/>
<path d="M5713 3520 c-3 -11 -9 -20 -14 -20 -5 0 -9 -7 -9 -15 0 -8 4 -15 9
-15 5 0 11 -27 13 -61 3 -38 10 -64 19 -70 23 -14 59 -11 59 6 0 8 -9 15 -20
15 -18 0 -20 7 -20 55 0 48 2 55 20 55 11 0 20 7 20 15 0 8 -8 15 -19 15 -10
0 -21 9 -24 20 -3 11 -10 20 -17 20 -7 0 -14 -9 -17 -20z"/>
<path d="M4258 3490 c-22 -13 -40 -72 -32 -104 11 -45 68 -69 119 -50 47 18
56 118 12 149 -24 17 -73 19 -99 5z m90 -63 c4 -46 -11 -67 -48 -67 -29 0 -40
15 -40 55 0 45 10 56 49 53 34 -3 36 -5 39 -41z"/>
<path d="M4430 3415 c0 -69 3 -85 15 -85 12 0 15 13 15 58 0 62 11 82 46 82
27 0 34 -17 34 -86 0 -41 4 -54 15 -54 10 0 15 16 17 61 3 65 19 88 52 76 13
-5 16 -20 16 -72 0 -58 2 -66 18 -63 26 5 23 135 -3 154 -25 18 -60 18 -75 -1
-12 -14 -15 -14 -30 0 -19 18 -43 19 -71 5 -13 -7 -19 -7 -19 0 0 5 -7 10 -15
10 -12 0 -15 -16 -15 -85z"/>
<path d="M4730 3385 c0 -96 3 -115 15 -115 11 0 15 11 15 40 0 37 2 40 19 30
55 -29 101 6 101 75 0 69 -46 104 -101 75 -13 -7 -19 -7 -19 0 0 5 -7 10 -15
10 -12 0 -15 -19 -15 -115z m114 69 c10 -26 7 -69 -6 -82 -7 -7 -21 -12 -33
-12 -30 0 -45 19 -45 55 0 17 5 36 12 43 17 17 65 15 72 -4z"/>
<path d="M4945 3475 c-54 -53 -19 -145 54 -145 74 0 112 104 55 149 -36 28
-79 27 -109 -4z m93 -17 c16 -16 15 -60 -1 -82 -9 -12 -23 -17 -42 -14 -61 7
-58 108 3 108 15 0 33 -5 40 -12z"/>
<path d="M5130 3415 c0 -69 3 -85 15 -85 12 0 15 13 15 58 0 62 11 82 46 82
27 0 34 -17 34 -86 0 -41 4 -54 15 -54 21 0 21 117 -1 148 -16 24 -62 30 -81
11 -8 -8 -13 -8 -17 0 -18 28 -26 4 -26 -74z"/>
<path d="M5348 3490 c-22 -13 -40 -72 -32 -104 11 -46 75 -70 128 -50 32 12
15 24 -33 24 -35 0 -51 4 -55 16 -11 29 -6 33 52 36 54 3 57 4 54 28 -6 48
-69 76 -114 50z m70 -22 c24 -24 13 -38 -28 -38 -43 0 -55 20 -22 39 23 14 36
13 50 -1z"/>
<path d="M5510 3415 c0 -69 3 -85 15 -85 12 0 15 13 15 59 0 64 13 85 52 79
21 -3 23 -9 26 -70 2 -52 6 -68 17 -68 22 0 21 133 -1 154 -18 18 -47 20 -75
6 -13 -7 -19 -7 -19 0 0 5 -7 10 -15 10 -12 0 -15 -16 -15 -85z"/>
<path d="M4657 3123 c-4 -3 -7 -60 -7 -125 0 -98 3 -118 15 -118 8 0 15 5 15
10 0 7 6 7 19 0 35 -18 69 -12 88 17 22 34 21 97 -2 123 -20 22 -65 26 -83 8
-9 -9 -12 0 -12 40 0 37 -4 52 -13 52 -8 0 -17 -3 -20 -7z m107 -119 c3 -9 6
-26 6 -39 0 -50 -20 -66 -64 -49 -20 8 -23 90 -3 97 25 11 55 6 61 -9z"/>
<path d="M4576 3113 c-12 -12 -6 -33 9 -33 8 0 15 6 15 14 0 17 -14 28 -24 19z"/>
<path d="M4410 2996 l0 -116 66 0 c48 0 65 3 62 13 -3 6 -23 13 -46 15 l-41 3
-3 97 c-3 83 -6 97 -20 100 -16 3 -18 -7 -18 -112z"/>
<path d="M4570 2965 c0 -69 3 -85 15 -85 12 0 15 16 15 85 0 69 -3 85 -15 85
-12 0 -15 -16 -15 -85z"/>
<path d="M4850 2965 c0 -69 3 -85 15 -85 11 0 15 13 15 54 0 59 16 86 51 86
10 0 19 7 19 15 0 18 -41 20 -58 3 -9 -9 -12 -9 -12 0 0 7 -7 12 -15 12 -12 0
-15 -16 -15 -85z"/>
<path d="M4982 3038 c-20 -20 -14 -24 36 -24 35 1 47 -3 47 -14 0 -9 -14 -17
-39 -21 -38 -6 -66 -30 -66 -54 0 -27 36 -44 88 -43 l52 1 0 67 c0 52 -4 71
-18 83 -22 20 -83 22 -100 5z m88 -92 c0 -19 -27 -46 -46 -46 -17 0 -28 24
-20 45 7 20 66 20 66 1z"/>
<path d="M5150 2965 c0 -78 2 -85 20 -85 18 0 20 7 20 58 0 60 11 82 42 82 10
0 18 7 18 15 0 17 -23 20 -51 5 -13 -7 -19 -7 -19 0 0 5 -7 10 -15 10 -12 0
-15 -16 -15 -85z"/>
<path d="M5270 3041 c0 -5 13 -45 29 -89 19 -52 26 -83 20 -93 -14 -22 -10
-41 8 -37 11 2 29 38 55 108 43 119 43 120 24 120 -9 0 -23 -26 -36 -65 -12
-36 -23 -65 -25 -65 -2 0 -13 29 -25 65 -13 39 -27 65 -36 65 -8 0 -14 -4 -14
-9z"/>
<path d="M11160 4100 c0 -27 3 -30 30 -30 27 0 30 3 30 30 0 27 -3 30 -30 30
-27 0 -30 -3 -30 -30z"/>
<path d="M3020 4040 c0 -27 3 -30 30 -30 27 0 30 3 30 30 0 27 -3 30 -30 30
-27 0 -30 -3 -30 -30z"/>
<path d="M11160 3980 c0 -27 3 -30 30 -30 27 0 30 3 30 30 0 27 -3 30 -30 30
-27 0 -30 -3 -30 -30z"/>
<path d="M3020 3920 c0 -27 3 -30 30 -30 27 0 30 3 30 30 0 27 -3 30 -30 30
-27 0 -30 -3 -30 -30z"/>
<path d="M11162 3856 c4 -34 3 -35 -74 -72 -43 -21 -78 -41 -78 -44 0 -3 35
-23 78 -44 77 -37 78 -38 74 -72 -4 -32 -3 -34 27 -34 25 0 31 4 31 21 0 11 5
17 10 14 6 -4 10 10 10 34 l0 41 170 0 170 0 0 40 0 40 -170 0 -170 0 0 41 c0
24 -4 38 -10 34 -5 -3 -10 3 -10 14 0 17 -6 21 -31 21 -30 0 -31 -2 -27 -34z"/>
<path d="M3020 3800 c0 -27 3 -30 30 -30 27 0 30 3 30 30 0 27 -3 30 -30 30
-27 0 -30 -3 -30 -30z"/>
<path d="M3020 3680 c0 -27 3 -30 30 -30 27 0 30 3 30 30 0 27 -3 30 -30 30
-27 0 -30 -3 -30 -30z"/>
<path d="M3020 3560 c0 -27 3 -30 30 -30 27 0 30 3 30 30 0 27 -3 30 -30 30
-27 0 -30 -3 -30 -30z"/>
<path d="M11160 3500 c0 -27 3 -30 30 -30 27 0 30 3 30 30 0 27 -3 30 -30 30
-27 0 -30 -3 -30 -30z"/>
<path d="M3020 3440 c0 -27 3 -30 30 -30 27 0 30 3 30 30 0 27 -3 30 -30 30
-27 0 -30 -3 -30 -30z"/>
<path d="M11160 3380 c0 -27 3 -30 30 -30 27 0 30 3 30 30 0 27 -3 30 -30 30
-27 0 -30 -3 -30 -30z"/>
<path d="M3020 3320 c0 -27 3 -30 30 -30 27 0 30 3 30 30 0 27 -3 30 -30 30
-27 0 -30 -3 -30 -30z"/>
<path d="M11160 3260 c0 -27 3 -30 30 -30 27 0 30 3 30 30 0 27 -3 30 -30 30
-27 0 -30 -3 -30 -30z"/>
<path d="M3020 3200 c0 -27 3 -30 30 -30 27 0 30 3 30 30 0 27 -3 30 -30 30
-27 0 -30 -3 -30 -30z"/>
<path d="M11160 3140 c0 -27 3 -30 30 -30 27 0 30 3 30 30 0 27 -3 30 -30 30
-27 0 -30 -3 -30 -30z"/>
<path d="M3020 3080 c0 -27 3 -30 30 -30 27 0 30 3 30 30 0 27 -3 30 -30 30
-27 0 -30 -3 -30 -30z"/>
<path d="M11160 3020 c0 -27 3 -30 30 -30 27 0 30 3 30 30 0 27 -3 30 -30 30
-27 0 -30 -3 -30 -30z"/>
<path d="M3020 2960 c0 -27 3 -30 30 -30 27 0 30 3 30 30 0 27 -3 30 -30 30
-27 0 -30 -3 -30 -30z"/>
<path d="M11160 2900 c0 -27 3 -30 30 -30 27 0 30 3 30 30 0 27 -3 30 -30 30
-27 0 -30 -3 -30 -30z"/>
<path d="M3020 2840 c0 -27 3 -30 30 -30 27 0 30 3 30 30 0 27 -3 30 -30 30
-27 0 -30 -3 -30 -30z"/>
<path d="M11160 2780 c0 -27 3 -30 30 -30 27 0 30 3 30 30 0 27 -3 30 -30 30
-27 0 -30 -3 -30 -30z"/>
<path d="M3020 2720 c0 -27 3 -30 30 -30 27 0 30 3 30 30 0 27 -3 30 -30 30
-27 0 -30 -3 -30 -30z"/>
<path d="M11160 2660 c0 -27 3 -30 30 -30 27 0 30 3 30 30 0 27 -3 30 -30 30
-27 0 -30 -3 -30 -30z"/>
<path d="M3020 2600 c0 -27 3 -30 30 -30 27 0 30 3 30 30 0 27 -3 30 -30 30
-27 0 -30 -3 -30 -30z"/>
<path d="M11160 2540 c0 -27 3 -30 30 -30 27 0 30 3 30 30 0 27 -3 30 -30 30
-27 0 -30 -3 -30 -30z"/>
<path d="M3050 2520 c0 -5 -7 -10 -15 -10 -8 0 -15 -4 -15 -8 0 -17 25 -32 52
-32 24 0 28 4 28 30 0 25 -4 30 -25 30 -14 0 -25 -4 -25 -10z"/>
<path d="M3160 2500 c0 -27 3 -30 30 -30 27 0 30 3 30 30 0 27 -3 30 -30 30
-27 0 -30 -3 -30 -30z"/>
<path d="M3280 2500 c0 -27 3 -30 30 -30 27 0 30 3 30 30 0 27 -3 30 -30 30
-27 0 -30 -3 -30 -30z"/>
<path d="M3400 2500 c0 -27 3 -30 30 -30 27 0 30 3 30 30 0 27 -3 30 -30 30
-27 0 -30 -3 -30 -30z"/>
<path d="M3520 2500 c0 -27 3 -30 30 -30 27 0 30 3 30 30 0 27 -3 30 -30 30
-27 0 -30 -3 -30 -30z"/>
<path d="M3640 2500 c0 -27 3 -30 30 -30 27 0 30 3 30 30 0 27 -3 30 -30 30
-27 0 -30 -3 -30 -30z"/>
<path d="M3760 2500 c0 -27 3 -30 30 -30 27 0 30 3 30 30 0 27 -3 30 -30 30
-27 0 -30 -3 -30 -30z"/>
<path d="M3880 2500 c0 -27 3 -30 30 -30 27 0 30 3 30 30 0 27 -3 30 -30 30
-27 0 -30 -3 -30 -30z"/>
<path d="M4000 2500 c0 -27 3 -30 30 -30 27 0 30 3 30 30 0 27 -3 30 -30 30
-27 0 -30 -3 -30 -30z"/>
<path d="M4120 2500 c0 -27 3 -30 30 -30 27 0 30 3 30 30 0 27 -3 30 -30 30
-27 0 -30 -3 -30 -30z"/>
<path d="M4240 2500 c0 -27 3 -30 30 -30 27 0 30 3 30 30 0 27 -3 30 -30 30
-27 0 -30 -3 -30 -30z"/>
<path d="M4360 2500 c0 -27 3 -30 30 -30 27 0 30 3 30 30 0 27 -3 30 -30 30
-27 0 -30 -3 -30 -30z"/>
<path d="M4480 2500 c0 -27 3 -30 30 -30 27 0 30 3 30 30 0 27 -3 30 -30 30
-27 0 -30 -3 -30 -30z"/>
<path d="M4600 2500 c0 -27 3 -30 30 -30 27 0 30 3 30 30 0 27 -3 30 -30 30
-27 0 -30 -3 -30 -30z"/>
<path d="M4720 2500 c0 -27 3 -30 30 -30 27 0 30 3 30 30 0 27 -3 30 -30 30
-27 0 -30 -3 -30 -30z"/>
<path d="M4840 2500 c0 -27 3 -30 30 -30 27 0 30 3 30 30 0 27 -3 30 -30 30
-27 0 -30 -3 -30 -30z"/>
<path d="M4960 2500 c0 -27 3 -30 30 -30 27 0 30 3 30 30 0 27 -3 30 -30 30
-27 0 -30 -3 -30 -30z"/>
<path d="M5080 2500 c0 -27 3 -30 30 -30 27 0 30 3 30 30 0 27 -3 30 -30 30
-27 0 -30 -3 -30 -30z"/>
<path d="M5200 2500 c0 -27 3 -30 30 -30 27 0 30 3 30 30 0 27 -3 30 -30 30
-27 0 -30 -3 -30 -30z"/>
<path d="M5320 2500 c0 -27 3 -30 30 -30 27 0 30 3 30 30 0 27 -3 30 -30 30
-27 0 -30 -3 -30 -30z"/>
<path d="M5440 2500 c0 -27 3 -30 30 -30 27 0 30 3 30 30 0 27 -3 30 -30 30
-27 0 -30 -3 -30 -30z"/>
<path d="M5560 2500 c0 -27 3 -30 30 -30 27 0 30 3 30 30 0 27 -3 30 -30 30
-27 0 -30 -3 -30 -30z"/>
<path d="M5680 2500 c0 -27 3 -30 30 -30 27 0 30 3 30 30 0 27 -3 30 -30 30
-27 0 -30 -3 -30 -30z"/>
<path d="M5800 2500 c0 -27 3 -30 30 -30 27 0 30 3 30 30 0 27 -3 30 -30 30
-27 0 -30 -3 -30 -30z"/>
<path d="M5920 2500 c0 -27 3 -30 30 -30 27 0 30 3 30 30 0 27 -3 30 -30 30
-27 0 -30 -3 -30 -30z"/>
<path d="M6040 2500 c0 -27 3 -30 30 -30 27 0 30 3 30 30 0 27 -3 30 -30 30
-27 0 -30 -3 -30 -30z"/>
<path d="M6160 2500 c0 -27 3 -30 30 -30 27 0 30 3 30 30 0 27 -3 30 -30 30
-27 0 -30 -3 -30 -30z"/>
<path d="M6280 2500 c0 -27 3 -30 30 -30 27 0 30 3 30 30 0 27 -3 30 -30 30
-27 0 -30 -3 -30 -30z"/>
<path d="M6400 2500 c0 -27 3 -30 30 -30 27 0 30 3 30 30 0 27 -3 30 -30 30
-27 0 -30 -3 -30 -30z"/>
<path d="M6520 2500 c0 -27 3 -30 30 -30 27 0 30 3 30 30 0 27 -3 30 -30 30
-27 0 -30 -3 -30 -30z"/>
<path d="M6640 2500 c0 -27 3 -30 30 -30 27 0 30 3 30 30 0 27 -3 30 -30 30
-27 0 -30 -3 -30 -30z"/>
<path d="M6760 2500 c0 -27 3 -30 30 -30 27 0 30 3 30 30 0 27 -3 30 -30 30
-27 0 -30 -3 -30 -30z"/>
<path d="M6880 2500 c0 -27 3 -30 30 -30 27 0 30 3 30 30 0 27 -3 30 -30 30
-27 0 -30 -3 -30 -30z"/>
<path d="M7000 2500 c0 -27 3 -30 30 -30 27 0 30 3 30 30 0 27 -3 30 -30 30
-27 0 -30 -3 -30 -30z"/>
<path d="M7120 2500 c0 -27 3 -30 30 -30 27 0 30 3 30 30 0 27 -3 30 -30 30
-27 0 -30 -3 -30 -30z"/>
<path d="M7240 2500 c0 -27 3 -30 30 -30 27 0 30 3 30 30 0 27 -3 30 -30 30
-27 0 -30 -3 -30 -30z"/>
<path d="M7360 2500 c0 -27 3 -30 30 -30 27 0 30 3 30 30 0 27 -3 30 -30 30
-27 0 -30 -3 -30 -30z"/>
<path d="M7480 2500 c0 -27 3 -30 30 -30 27 0 30 3 30 30 0 27 -3 30 -30 30
-27 0 -30 -3 -30 -30z"/>
<path d="M7600 2500 c0 -27 3 -30 30 -30 27 0 30 3 30 30 0 27 -3 30 -30 30
-27 0 -30 -3 -30 -30z"/>
<path d="M7720 2500 c0 -27 3 -30 30 -30 27 0 30 3 30 30 0 27 -3 30 -30 30
-27 0 -30 -3 -30 -30z"/>
<path d="M7840 2500 c0 -27 3 -30 30 -30 27 0 30 3 30 30 0 27 -3 30 -30 30
-27 0 -30 -3 -30 -30z"/>
<path d="M7960 2500 c0 -27 3 -30 30 -30 27 0 30 3 30 30 0 27 -3 30 -30 30
-27 0 -30 -3 -30 -30z"/>
<path d="M8080 2500 c0 -27 3 -30 30 -30 27 0 30 3 30 30 0 27 -3 30 -30 30
-27 0 -30 -3 -30 -30z"/>
<path d="M8200 2500 c0 -27 3 -30 30 -30 27 0 30 3 30 30 0 27 -3 30 -30 30
-27 0 -30 -3 -30 -30z"/>
<path d="M8320 2500 c0 -27 3 -30 30 -30 27 0 30 3 30 30 0 27 -3 30 -30 30
-27 0 -30 -3 -30 -30z"/>
<path d="M8440 2500 c0 -27 3 -30 30 -30 27 0 30 3 30 30 0 27 -3 30 -30 30
-27 0 -30 -3 -30 -30z"/>
<path d="M8560 2500 c0 -27 3 -30 30 -30 27 0 30 3 30 30 0 27 -3 30 -30 30
-27 0 -30 -3 -30 -30z"/>
<path d="M8680 2500 c0 -27 3 -30 30 -30 27 0 30 3 30 30 0 27 -3 30 -30 30
-27 0 -30 -3 -30 -30z"/>
<path d="M8800 2500 c0 -27 3 -30 30 -30 27 0 30 3 30 30 0 27 -3 30 -30 30
-27 0 -30 -3 -30 -30z"/>
<path d="M8920 2500 c0 -27 3 -30 30 -30 27 0 30 3 30 30 0 27 -3 30 -30 30
-27 0 -30 -3 -30 -30z"/>
<path d="M9040 2500 c0 -27 3 -30 30 -30 27 0 30 3 30 30 0 27 -3 30 -30 30
-27 0 -30 -3 -30 -30z"/>
<path d="M9160 2500 c0 -27 3 -30 30 -30 27 0 30 3 30 30 0 27 -3 30 -30 30
-27 0 -30 -3 -30 -30z"/>
<path d="M9280 2500 c0 -27 3 -30 30 -30 27 0 30 3 30 30 0 27 -3 30 -30 30
-27 0 -30 -3 -30 -30z"/>
<path d="M9400 2500 c0 -27 3 -30 30 -30 27 0 30 3 30 30 0 27 -3 30 -30 30
-27 0 -30 -3 -30 -30z"/>
<path d="M9520 2500 c0 -27 3 -30 30 -30 27 0 30 3 30 30 0 27 -3 30 -30 30
-27 0 -30 -3 -30 -30z"/>
<path d="M9640 2500 c0 -27 3 -30 30 -30 27 0 30 3 30 30 0 27 -3 30 -30 30
-27 0 -30 -3 -30 -30z"/>
<path d="M9760 2500 c0 -27 3 -30 30 -30 27 0 30 3 30 30 0 27 -3 30 -30 30
-27 0 -30 -3 -30 -30z"/>
<path d="M9880 2500 c0 -27 3 -30 30 -30 27 0 30 3 30 30 0 27 -3 30 -30 30
-27 0 -30 -3 -30 -30z"/>
<path d="M10000 2500 c0 -27 3 -30 30 -30 27 0 30 3 30 30 0 27 -3 30 -30 30
-27 0 -30 -3 -30 -30z"/>
<path d="M10120 2500 c0 -27 3 -30 30 -30 27 0 30 3 30 30 0 27 -3 30 -30 30
-27 0 -30 -3 -30 -30z"/>
<path d="M10240 2500 c0 -27 3 -30 30 -30 27 0 30 3 30 30 0 27 -3 30 -30 30
-27 0 -30 -3 -30 -30z"/>
<path d="M10360 2500 c0 -27 3 -30 30 -30 27 0 30 3 30 30 0 27 -3 30 -30 30
-27 0 -30 -3 -30 -30z"/>
<path d="M10480 2500 c0 -27 3 -30 30 -30 27 0 30 3 30 30 0 27 -3 30 -30 30
-27 0 -30 -3 -30 -30z"/>
<path d="M10600 2500 c0 -27 3 -30 30 -30 27 0 30 3 30 30 0 27 -3 30 -30 30
-27 0 -30 -3 -30 -30z"/>
<path d="M10720 2500 c0 -27 3 -30 30 -30 27 0 30 3 30 30 0 27 -3 30 -30 30
-27 0 -30 -3 -30 -30z"/>
<path d="M10840 2500 c0 -27 3 -30 30 -30 27 0 30 3 30 30 0 27 -3 30 -30 30
-27 0 -30 -3 -30 -30z"/>
<path d="M10960 2500 c0 -27 3 -30 30 -30 27 0 30 3 30 30 0 27 -3 30 -30 30
-27 0 -30 -3 -30 -30z"/>
<path d="M11080 2500 c0 -27 3 -30 30 -30 27 0 30 3 30 30 0 27 -3 30 -30 30
-27 0 -30 -3 -30 -30z"/>
<path d="M5737 2295 l-57 -115 40 0 40 0 0 -150 0 -150 40 0 40 0 0 150 0 150
40 0 40 0 -57 115 c-32 63 -60 115 -63 115 -3 0 -31 -52 -63 -115z"/>
<path d="M3587 2235 l-57 -115 40 0 40 0 0 -150 0 -150 40 0 40 0 0 150 0 150
40 0 40 0 -57 115 c-32 63 -60 115 -63 115 -3 0 -31 -52 -63 -115z"/>
<path d="M9790 2210 l0 -130 -35 0 c-19 0 -35 -3 -35 -7 0 -14 103 -233 109
-233 10 0 120 227 114 234 -4 3 -21 6 -40 6 l-33 0 0 130 0 130 -40 0 -40 0 0
-130z"/>
<path d="M8607 1763 c-4 -3 -7 -347 -7 -764 l0 -758 38 -10 c96 -25 126 -31
247 -52 108 -19 167 -23 350 -24 257 0 337 13 614 97 277 84 329 98 442 123
162 36 317 55 489 61 85 3 165 7 178 10 l22 4 -2 658 -3 657 -1181 3 c-649 1
-1184 -1 -1187 -5z m2333 -652 l0 -619 -107 -6 c-178 -11 -332 -27 -443 -46
-57 -11 -106 -17 -108 -15 -2 2 1 18 7 36 26 76 1 259 -36 259 -10 0 -13 -5
-8 -17 41 -101 32 -270 -15 -293 -8 -4 -73 -24 -145 -44 -71 -20 -188 -55
-260 -77 -385 -118 -698 -127 -1117 -33 l-68 16 0 729 0 729 1150 0 1150 0 0
-619z"/>
<path d="M9304 1607 c-2 -7 -3 -58 -2 -113 l3 -99 63 -3 c36 -2 62 1 62 7 0 5
-21 11 -47 13 l-48 3 -3 43 -3 42 45 0 c58 0 60 18 4 22 -42 3 -43 4 -43 38 0
35 0 35 48 38 68 4 58 22 -13 22 -41 0 -62 -4 -66 -13z"/>
<path d="M9480 1475 c0 -69 3 -85 15 -85 12 0 15 13 15 59 0 50 4 62 22 75 15
11 26 12 40 5 15 -8 18 -22 18 -74 0 -51 3 -65 15 -65 22 0 21 132 -1 154 -18
18 -47 20 -75 6 -13 -7 -19 -7 -19 0 0 5 -7 10 -15 10 -12 0 -15 -16 -15 -85z"/>
<path d="M9695 1535 c-68 -67 8 -174 99 -139 29 11 17 27 -16 20 -35 -7 -78
15 -78 39 0 12 14 15 60 15 48 0 60 3 60 16 0 19 -19 56 -34 66 -23 16 -67 8
-91 -17z m76 -5 c36 -20 23 -40 -26 -40 -48 0 -55 9 -29 34 18 19 28 20 55 6z"/>
<path d="M9870 1475 c0 -69 3 -85 15 -85 12 0 15 13 15 58 0 60 11 82 42 82
10 0 18 7 18 15 0 18 -31 20 -49 3 -11 -10 -14 -10 -18 0 -13 35 -23 3 -23
-73z"/>
<path d="M10006 1544 c-9 -8 -17 -32 -17 -52 -1 -20 -3 -59 -5 -87 -4 -59 10
-75 68 -75 36 0 78 26 78 49 0 19 -45 41 -82 41 -25 0 -38 5 -38 14 0 9 8 12
25 8 14 -2 36 3 51 13 21 13 25 23 22 47 -3 19 0 32 9 35 30 12 10 23 -41 23
-36 0 -60 -5 -70 -16z m62 -13 c18 -11 11 -51 -10 -65 -14 -8 -22 -7 -35 6
-14 14 -15 22 -5 43 12 26 27 31 50 16z m17 -145 c18 -13 18 -14 -3 -25 -28
-15 -57 -14 -71 2 -25 31 37 50 74 23z"/>
<path d="M10150 1556 c0 -3 14 -42 31 -88 25 -68 28 -87 19 -107 -12 -26 -8
-36 12 -28 11 4 89 198 88 220 0 4 -6 7 -13 7 -8 0 -22 -26 -32 -60 -10 -34
-21 -63 -25 -65 -3 -2 -16 25 -29 61 -13 37 -29 64 -37 64 -8 0 -14 -2 -14 -4z"/>
<path d="M9390 1125 c0 -8 7 -15 15 -15 8 0 15 7 15 15 0 8 -7 15 -15 15 -8 0
-15 -7 -15 -15z"/>
<path d="M10080 1125 c0 -8 7 -15 15 -15 8 0 15 7 15 15 0 8 -7 15 -15 15 -8
0 -15 -7 -15 -15z"/>
<path d="M9270 1100 c0 -11 -7 -20 -15 -20 -8 0 -15 -4 -15 -10 0 -5 7 -10 15
-10 12 0 15 -13 15 -59 0 -42 5 -64 16 -76 19 -19 55 -16 62 4 3 10 0 12 -11
8 -25 -9 -38 18 -35 70 3 41 6 48 26 51 30 5 28 22 -3 22 -18 0 -25 5 -25 20
0 11 -7 20 -15 20 -8 0 -15 -9 -15 -20z"/>
<path d="M9960 1100 c0 -11 -7 -20 -15 -20 -8 0 -15 -4 -15 -10 0 -5 7 -10 15
-10 12 0 15 -14 15 -64 0 -43 5 -67 14 -76 18 -14 58 -10 64 8 2 7 -2 13 -9
11 -35 -4 -39 1 -39 61 0 57 1 60 25 60 14 0 25 5 25 10 0 6 -11 10 -25 10
-18 0 -25 5 -25 20 0 11 -7 20 -15 20 -8 0 -15 -9 -15 -20z"/>
<path d="M8950 1060 c-14 -14 -20 -33 -20 -65 0 -56 25 -85 74 -85 41 0 66 8
66 22 0 6 -14 8 -32 5 -43 -6 -74 6 -81 32 -5 20 -1 21 54 21 59 0 59 0 59 29
0 55 -79 82 -120 41z m78 -12 c24 -24 13 -38 -28 -38 -43 0 -55 20 -22 39 23
14 36 13 50 -1z"/>
<path d="M9126 1059 c-19 -28 -6 -57 35 -72 16 -6 31 -17 33 -24 8 -20 -29
-35 -58 -23 -21 7 -26 6 -26 -5 0 -19 46 -30 79 -19 19 7 27 17 29 40 3 26 -2
33 -27 44 -17 7 -36 19 -43 27 -16 20 8 35 45 28 20 -3 27 -1 25 8 -3 6 -21
13 -40 15 -28 2 -40 -2 -52 -19z"/>
<path d="M9390 995 c0 -69 3 -85 15 -85 12 0 15 16 15 85 0 69 -3 85 -15 85
-12 0 -15 -16 -15 -85z"/>
<path d="M9480 995 c0 -50 4 -85 10 -85 6 0 10 25 10 55 0 66 26 103 60 85 17
-9 20 -21 20 -75 0 -50 3 -65 15 -65 10 0 15 16 17 61 2 50 7 64 24 76 35 23
54 -5 54 -78 0 -46 3 -59 15 -59 16 0 21 59 9 120 -9 43 -46 60 -83 39 -22
-13 -29 -13 -39 -2 -16 16 -54 17 -71 1 -11 -10 -14 -10 -18 0 -13 35 -23 3
-23 -73z"/>
<path d="M9784 1066 c-26 -19 -13 -29 20 -16 31 12 66 -2 66 -25 0 -10 -10
-15 -31 -15 -45 0 -69 -16 -69 -48 0 -35 16 -52 50 -52 14 0 31 5 38 12 9 9
12 9 12 0 0 -7 7 -12 15 -12 21 0 21 117 -1 148 -18 26 -69 30 -100 8z m86
-96 c0 -12 -10 -25 -25 -32 -21 -9 -29 -9 -42 5 -22 22 -2 47 38 47 22 0 29
-5 29 -20z"/>
<path d="M10080 995 c0 -69 3 -85 15 -85 12 0 15 16 15 85 0 69 -3 85 -15 85
-12 0 -15 -16 -15 -85z"/>
<path d="M10180 1062 c-13 -10 -23 -33 -27 -59 -5 -35 -2 -45 20 -67 32 -32
74 -34 111 -5 34 27 37 98 6 129 -25 25 -80 26 -110 2z m92 -26 c16 -24 8 -75
-14 -90 -29 -20 -34 -20 -58 4 -26 26 -26 64 1 91 21 21 56 19 71 -5z"/>
<path d="M10360 995 c0 -69 3 -85 15 -85 12 0 15 13 15 59 0 50 4 62 22 75 15
11 26 12 40 5 15 -8 18 -22 18 -74 0 -51 3 -65 15 -65 24 0 21 131 -3 153 -21
19 -45 21 -73 7 -13 -7 -19 -7 -19 0 0 5 -7 10 -15 10 -12 0 -15 -16 -15 -85z"/>
<path d="M10568 1069 c-10 -5 -18 -21 -18 -34 0 -19 10 -30 40 -45 60 -30 46
-73 -16 -50 -22 9 -25 7 -22 -7 5 -26 64 -30 89 -7 28 26 20 56 -21 76 -47 24
-48 54 -2 51 21 -1 32 3 29 10 -5 16 -57 20 -79 6z"/>
<path d="M9304 688 c-34 -66 -28 -221 10 -273 22 -31 27 -14 11 40 -19 62 -19
149 0 211 18 59 17 54 5 54 -5 0 -17 -15 -26 -32z"/>
<path d="M9405 620 c25 -49 35 -83 35 -115 0 -33 4 -45 15 -45 11 0 15 11 15
40 0 26 12 65 35 110 40 80 40 80 20 80 -9 0 -26 -24 -41 -57 l-25 -58 -26 58
c-18 40 -32 57 -45 57 -16 0 -14 -7 17 -70z"/>
<path d="M9605 673 c-14 -37 -75 -206 -75 -209 0 -2 6 -4 14 -4 8 0 19 14 25
30 9 28 13 30 60 30 46 0 50 -2 60 -30 5 -16 17 -30 25 -30 9 0 16 2 16 5 0 2
-19 54 -41 115 -31 83 -46 110 -59 110 -10 0 -21 -8 -25 -17z m46 -78 c9 -24
14 -46 11 -49 -8 -9 -72 -7 -72 2 0 16 34 101 39 96 3 -3 13 -25 22 -49z"/>
<path d="M9770 576 c0 -95 3 -116 15 -116 11 0 15 20 17 97 l3 97 36 -94 c21
-55 42 -96 51 -98 10 -2 27 26 56 95 l41 98 0 -97 c1 -80 4 -98 16 -98 12 0
15 20 15 116 0 112 -1 115 -21 112 -25 -3 -27 -7 -72 -108 l-33 -74 -36 89
c-31 78 -39 90 -62 93 l-26 3 0 -115z"/>
<path d="M10090 575 l0 -115 60 0 c47 0 60 3 60 15 0 11 -12 15 -45 15 l-45 0
0 100 c0 82 -3 100 -15 100 -12 0 -15 -19 -15 -115z"/>
<path d="M2735 1658 c-3 -7 -4 -231 -3 -498 l3 -485 1020 0 1020 0 0 495 0
495 -1018 3 c-809 2 -1019 0 -1022 -10z m2005 -488 l0 -460 -985 0 -985 0 0
460 0 460 985 0 985 0 0 -460z"/>
<path d="M3060 1365 l0 -105 60 0 c33 0 60 4 60 10 0 6 -20 10 -45 10 l-45 0
0 40 c0 39 1 40 35 40 19 0 35 5 35 10 0 6 -16 10 -35 10 -33 0 -35 2 -35 35
0 35 0 35 45 35 25 0 45 5 45 10 0 6 -27 10 -60 10 l-60 0 0 -105z"/>
<path d="M3460 1455 c0 -8 7 -15 15 -15 8 0 15 7 15 15 0 8 -7 15 -15 15 -8 0
-15 -7 -15 -15z"/>
<path d="M4070 1455 c0 -8 7 -15 15 -15 8 0 15 7 15 15 0 8 -7 15 -15 15 -8 0
-15 -7 -15 -15z"/>
<path d="M3360 1430 c0 -11 -7 -20 -15 -20 -8 0 -15 -4 -15 -9 0 -5 7 -11 15
-15 11 -4 15 -21 15 -60 0 -54 8 -66 46 -66 21 0 17 17 -6 23 -17 4 -20 14
-20 56 0 44 3 51 20 51 11 0 20 5 20 10 0 6 -9 10 -20 10 -13 0 -20 7 -20 20
0 11 -4 20 -10 20 -5 0 -10 -9 -10 -20z"/>
<path d="M3960 1431 c0 -11 -6 -22 -12 -25 -10 -5 -10 -7 0 -12 7 -3 12 -24
12 -50 0 -25 5 -54 10 -65 12 -22 60 -26 60 -5 0 8 -8 13 -17 12 -15 -1 -19 9
-21 52 -3 47 -1 52 17 52 12 0 21 5 21 10 0 6 -9 10 -20 10 -13 0 -20 7 -20
20 0 11 -7 20 -15 20 -8 0 -15 -9 -15 -19z"/>
<path d="M3233 1404 c-7 -3 -13 -18 -13 -33 0 -21 8 -31 35 -44 19 -9 35 -21
35 -26 0 -16 -38 -23 -60 -11 -16 9 -20 8 -20 -4 0 -21 46 -31 76 -17 38 17
32 54 -12 74 -40 20 -41 42 0 42 14 -1 25 4 23 10 -4 11 -45 17 -64 9z"/>
<path d="M3460 1335 c0 -60 3 -75 15 -75 12 0 15 15 15 75 0 60 -3 75 -15 75
-12 0 -15 -15 -15 -75z"/>
<path d="M3540 1335 c0 -43 4 -75 10 -75 6 0 10 22 10 48 0 36 5 54 20 67 34
31 50 13 50 -55 0 -47 3 -60 15 -60 12 0 15 13 15 55 0 45 3 56 22 66 30 16
48 -11 48 -73 0 -26 5 -48 10 -48 14 0 13 123 -2 138 -15 15 -50 16 -64 2 -8
-8 -19 -7 -37 1 -21 9 -33 9 -52 1 -15 -7 -25 -8 -25 -2 0 6 -4 10 -10 10 -6
0 -10 -32 -10 -75z"/>
<path d="M3807 1403 c-15 -15 -5 -22 23 -17 18 4 36 1 45 -6 23 -19 18 -30
-13 -30 -32 0 -72 -25 -72 -45 0 -28 30 -45 75 -43 l45 2 0 63 c0 51 -3 64
-19 73 -22 11 -74 14 -84 3z m83 -86 c0 -18 -21 -37 -41 -37 -22 0 -33 16 -25
35 7 19 66 20 66 2z"/>
<path d="M4070 1335 c0 -60 3 -75 15 -75 12 0 15 15 15 75 0 60 -3 75 -15 75
-12 0 -15 -15 -15 -75z"/>
<path d="M4162 1394 c-29 -20 -31 -93 -4 -117 29 -26 77 -22 101 9 58 73 -21
161 -97 108z m69 -14 c13 -7 19 -21 19 -45 0 -49 -42 -71 -74 -39 -21 20 -20
53 1 76 19 21 27 22 54 8z"/>
<path d="M4320 1335 c0 -60 3 -75 15 -75 12 0 15 13 15 55 0 45 4 56 21 65 33
18 49 -4 49 -66 0 -41 4 -54 15 -54 21 0 21 98 -1 128 -17 24 -53 29 -73 10
-11 -10 -14 -10 -18 0 -12 33 -23 4 -23 -63z"/>
<path d="M3370 970 c0 -67 4 -110 10 -110 6 0 10 43 10 110 0 67 -4 110 -10
110 -6 0 -10 -43 -10 -110z"/>
<path d="M3870 1055 c0 -8 7 -15 15 -15 8 0 15 7 15 15 0 8 -7 15 -15 15 -8 0
-15 -7 -15 -15z"/>
<path d="M4210 1050 c-16 -16 -20 -33 -20 -85 0 -52 4 -69 20 -85 38 -38 92
-21 110 36 14 43 6 111 -17 136 -21 24 -68 23 -93 -2z m69 -9 c22 -14 27 -106
7 -136 -20 -31 -40 -32 -60 -3 -31 43 -11 148 27 148 7 0 18 -4 26 -9z"/>
<path d="M3190 905 c0 -87 3 -105 15 -105 10 0 15 10 15 34 0 34 1 35 34 29
27 -4 36 -1 50 18 22 32 21 92 -2 112 -21 19 -45 21 -73 7 -13 -7 -19 -7 -19
0 0 5 -4 10 -10 10 -6 0 -10 -42 -10 -105z m87 77 c40 -25 7 -121 -34 -96 -25
15 -30 74 -7 91 20 15 25 15 41 5z"/>
<path d="M3440 951 c0 -80 28 -109 81 -81 13 7 19 7 19 0 0 -5 5 -10 10 -10 6
0 10 32 10 75 0 43 -4 75 -10 75 -5 0 -10 -24 -10 -53 0 -47 -3 -55 -25 -67
-35 -19 -47 -4 -53 65 -6 73 -22 71 -22 -4z"/>
<path d="M3627 999 c-15 -9 -18 -22 -16 -70 1 -32 -1 -62 -4 -66 -14 -13 -7
-43 12 -53 46 -24 111 -5 111 33 0 33 -19 47 -62 47 -25 0 -38 5 -38 13 0 9 9
12 28 9 36 -5 65 22 59 55 -2 12 0 23 4 23 5 0 9 5 9 10 0 13 -80 12 -103 -1z
m58 -39 c0 -18 -6 -26 -21 -28 -23 -3 -37 18 -27 44 10 25 48 13 48 -16z m14
-99 c12 -8 12 -12 2 -25 -16 -19 -55 -21 -70 -3 -22 27 33 50 68 28z"/>
<path d="M3870 935 c0 -60 3 -75 15 -75 12 0 15 15 15 75 0 60 -3 75 -15 75
-12 0 -15 -15 -15 -75z"/>
<path d="M3950 935 c0 -43 4 -75 10 -75 6 0 10 22 10 48 0 35 5 54 18 65 38
35 62 8 62 -67 0 -25 5 -46 10 -46 6 0 10 26 10 59 0 80 -28 109 -81 81 -13
-7 -19 -7 -19 0 0 5 -4 10 -10 10 -6 0 -10 -32 -10 -75z"/>
<path d="M3760 940 c0 -5 16 -10 35 -10 19 0 35 5 35 10 0 6 -16 10 -35 10
-19 0 -35 -4 -35 -10z"/>
<path d="M4835 1658 c-3 -7 -4 -231 -3 -498 l3 -485 1015 0 1015 0 0 495 0
495 -1013 3 c-805 2 -1014 0 -1017 -10z m1995 -488 l0 -460 -980 0 -980 0 0
460 0 460 980 0 980 0 0 -460z"/>
<path d="M5160 1365 l0 -105 55 0 c65 0 74 17 13 22 -42 3 -43 4 -46 41 l-3
37 40 0 c51 0 54 18 4 22 -35 3 -38 6 -38 33 0 28 3 30 43 33 61 5 52 22 -13
22 l-55 0 0 -105z"/>
<path d="M5560 1455 c0 -9 5 -15 11 -13 6 2 11 8 11 13 0 5 -5 11 -11 13 -6 2
-11 -4 -11 -13z"/>
<path d="M6160 1455 c0 -8 7 -15 15 -15 8 0 15 7 15 15 0 8 -7 15 -15 15 -8 0
-15 -7 -15 -15z"/>
<path d="M5450 1431 c0 -11 -6 -22 -12 -25 -10 -5 -10 -7 0 -12 7 -3 12 -26
12 -58 0 -29 5 -57 12 -64 17 -17 58 -15 58 2 0 8 -8 13 -17 12 -15 -1 -19 9
-21 52 -3 47 -1 52 17 52 12 0 21 5 21 10 0 6 -9 10 -20 10 -13 0 -20 7 -20
20 0 11 -7 20 -15 20 -8 0 -15 -9 -15 -19z"/>
<path d="M6060 1431 c0 -11 -6 -22 -12 -25 -10 -5 -10 -7 0 -12 7 -3 12 -26
12 -58 0 -29 5 -57 12 -64 17 -17 58 -15 58 2 0 8 -8 13 -17 12 -15 -1 -19 9
-21 52 -3 47 -1 52 17 52 12 0 21 5 21 10 0 6 -9 10 -20 10 -13 0 -20 7 -20
20 0 11 -7 20 -15 20 -8 0 -15 -9 -15 -19z"/>
<path d="M5326 1395 c-25 -25 -19 -44 19 -62 36 -17 46 -40 21 -49 -8 -3 -24
-1 -35 6 -17 9 -21 8 -21 -4 0 -21 46 -31 76 -17 35 16 31 48 -11 72 -45 27
-47 53 -5 47 19 -3 29 -1 27 6 -6 18 -53 18 -71 1z"/>
<path d="M5560 1335 c0 -43 4 -75 10 -75 6 0 10 32 10 75 0 43 -4 75 -10 75
-6 0 -10 -32 -10 -75z"/>
<path d="M5630 1335 c0 -60 3 -75 15 -75 12 0 15 13 15 55 0 45 3 56 22 66 30
16 48 -11 48 -73 0 -26 5 -48 10 -48 6 0 10 22 10 48 0 54 24 88 54 76 12 -5
16 -20 16 -65 0 -46 3 -59 15 -59 24 0 20 101 -4 131 -18 22 -22 23 -52 12
-22 -9 -37 -9 -43 -3 -14 14 -49 12 -65 -2 -11 -10 -14 -10 -18 0 -12 33 -23
4 -23 -63z"/>
<path d="M5900 1394 c0 -11 6 -14 20 -9 27 9 60 -3 60 -21 0 -8 -10 -14 -26
-14 -38 0 -64 -18 -64 -44 0 -33 18 -44 73 -44 l47 1 0 51 c0 70 -19 96 -71
96 -29 0 -39 -4 -39 -16z m80 -77 c0 -32 -52 -51 -63 -23 -3 7 0 19 6 25 15
15 57 14 57 -2z"/>
<path d="M6170 1335 c0 -43 4 -75 10 -75 6 0 10 32 10 75 0 43 -4 75 -10 75
-6 0 -10 -32 -10 -75z"/>
<path d="M6255 1385 c-27 -26 -31 -54 -14 -88 16 -29 28 -37 60 -37 42 0 73
31 73 73 0 72 -70 102 -119 52z m79 -11 c30 -30 10 -94 -29 -94 -21 0 -45 29
-45 55 0 26 24 55 45 55 7 0 21 -7 29 -16z"/>
<path d="M6420 1335 c0 -43 4 -75 10 -75 6 0 10 22 10 48 0 35 5 54 18 65 38
35 62 8 62 -67 0 -25 5 -46 10 -46 6 0 10 26 10 59 0 80 -28 109 -81 81 -13
-7 -19 -7 -19 0 0 5 -4 10 -10 10 -6 0 -10 -32 -10 -75z"/>
<path d="M5460 970 c0 -91 3 -110 15 -110 12 0 15 19 15 110 0 91 -3 110 -15
110 -12 0 -15 -19 -15 -110z"/>
<path d="M5970 1055 c0 -9 5 -15 11 -13 6 2 11 8 11 13 0 5 -5 11 -11 13 -6 2
-11 -4 -11 -13z"/>
<path d="M6323 1053 c-28 -19 -30 -38 -3 -23 27 14 32 0 28 -81 -3 -58 -5 -64
-25 -67 -47 -7 -21 -22 37 -22 33 0 60 4 60 10 0 6 -11 10 -25 10 -25 0 -25 0
-25 95 0 101 -4 108 -47 78z"/>
<path d="M5290 905 c0 -63 4 -105 10 -105 6 0 10 18 10 40 0 37 2 39 18 29 29
-18 68 -3 82 30 27 66 -19 128 -75 103 -15 -7 -25 -8 -25 -2 0 6 -4 10 -10 10
-6 0 -10 -42 -10 -105z m88 73 c16 -16 15 -60 -2 -83 -12 -17 -18 -18 -40 -7
-21 9 -26 19 -26 46 0 46 40 72 68 44z"/>
<path d="M5540 947 c0 -36 5 -68 12 -75 16 -16 50 -15 67 1 11 10 14 10 18 0
12 -34 23 -5 23 62 0 60 -3 75 -15 75 -12 0 -15 -13 -15 -55 0 -45 -4 -56 -21
-65 -33 -18 -49 4 -49 66 0 30 -4 54 -10 54 -6 0 -10 -28 -10 -63z"/>
<path d="M5718 993 c-11 -12 -16 -37 -16 -73 0 -30 -3 -62 -6 -71 -18 -41 66
-66 112 -33 24 17 29 48 10 61 -7 4 -30 10 -51 13 -21 3 -37 10 -36 15 1 6 10
9 20 7 32 -6 59 16 59 48 0 17 5 30 10 30 6 0 10 5 10 10 0 18 -95 12 -112 -7z
m67 -33 c0 -18 -6 -26 -23 -28 -24 -4 -38 18 -28 44 3 9 15 14 28 12 17 -2 23
-10 23 -28z m10 -115 c0 -15 -8 -21 -29 -23 -33 -4 -51 10 -42 33 9 25 71 16
71 -10z"/>
<path d="M5970 935 c0 -43 4 -75 10 -75 6 0 10 32 10 75 0 43 -4 75 -10 75 -6
0 -10 -32 -10 -75z"/>
<path d="M6040 935 c0 -60 3 -75 15 -75 12 0 15 13 15 55 0 45 4 56 21 65 33
18 49 -4 49 -66 0 -41 4 -54 15 -54 21 0 21 98 -1 128 -17 24 -53 29 -73 10
-11 -10 -14 -10 -18 0 -12 33 -23 4 -23 -63z"/>
<path d="M5850 940 c0 -5 18 -10 40 -10 22 0 40 5 40 10 0 6 -18 10 -40 10
-22 0 -40 -4 -40 -10z"/>
<path d="M7027 1076 c-10 -26 4 -47 27 -44 15 2 21 10 21 28 0 29 -38 41 -48
16z"/>
<path d="M7124 1075 c-9 -23 3 -45 26 -45 16 0 20 7 20 30 0 23 -4 30 -20 30
-11 0 -23 -7 -26 -15z"/>
<path d="M7217 1076 c-10 -26 4 -47 27 -44 15 2 21 10 21 28 0 29 -38 41 -48
16z"/>
<path d="M4206 512 c-12 -19 -28 -141 -22 -165 11 -44 84 -49 125 -8 10 10 23
47 30 82 7 35 15 72 18 83 3 12 1 17 -8 14 -8 -3 -21 -37 -29 -78 -17 -81 -48
-118 -88 -106 -30 10 -33 29 -17 107 8 39 15 72 15 75 0 7 -19 4 -24 -4z"/>
<path d="M4890 504 c0 -17 22 -14 28 4 2 7 -3 12 -12 12 -9 0 -16 -7 -16 -16z"/>
<path d="M5483 480 c-3 -11 -12 -20 -19 -20 -8 0 -14 -4 -14 -10 0 -5 5 -10
10 -10 7 0 9 -20 4 -60 -5 -50 -4 -61 10 -66 9 -3 24 -3 34 1 15 6 14 8 -6 16
-20 8 -23 14 -17 41 12 60 16 68 36 68 10 0 19 5 19 10 0 6 -9 10 -19 10 -14
0 -18 5 -14 20 3 12 0 20 -7 20 -6 0 -14 -9 -17 -20z"/>
<path d="M4408 449 c-29 -16 -22 -52 13 -72 27 -15 29 -20 18 -33 -9 -11 -22
-14 -42 -10 -20 4 -27 2 -25 -7 7 -20 53 -20 78 1 27 22 22 52 -12 67 -35 15
-29 40 10 40 17 0 31 4 29 10 -5 14 -49 17 -69 4z"/>
<path d="M4539 431 c-51 -52 -35 -121 28 -121 11 0 28 7 39 15 18 14 17 14
-13 9 -20 -4 -39 -2 -48 6 -23 19 -18 40 9 40 63 0 106 40 71 66 -29 21 -54
17 -86 -15z m69 -8 c-2 -12 -14 -19 -36 -21 -33 -3 -40 6 -20 26 19 19 60 15
56 -5z"/>
<path d="M4681 403 c-13 -68 -14 -93 -2 -93 5 0 12 18 16 40 8 46 41 94 61 86
8 -3 14 1 14 9 0 18 -14 19 -41 5 -13 -7 -19 -7 -19 0 0 5 -4 10 -9 10 -4 0
-13 -26 -20 -57z"/>
<path d="M4871 403 c-13 -67 -14 -93 -2 -93 4 0 15 34 23 75 12 57 12 75 3 75
-7 0 -17 -25 -24 -57z"/>
<path d="M4955 438 c-27 -120 -28 -137 -7 -124 5 3 12 24 16 46 7 42 35 80 61
80 17 0 19 -34 6 -92 -7 -29 -6 -38 4 -38 7 0 17 25 24 61 11 54 10 64 -3 78
-13 13 -21 13 -46 4 -17 -6 -30 -7 -30 -2 0 19 -20 8 -25 -13z"/>
<path d="M5130 456 c0 -2 -9 -48 -20 -101 -11 -54 -18 -100 -16 -103 10 -9 26
10 26 31 0 29 15 53 24 38 12 -19 46 -12 71 14 18 17 25 35 25 63 0 52 -21 70
-61 55 -16 -6 -29 -7 -29 -2 0 5 -4 9 -10 9 -5 0 -10 -2 -10 -4z m88 -43 c4
-30 -25 -83 -46 -83 -42 0 -48 49 -10 90 24 26 52 23 56 -7z"/>
<path d="M5291 410 c-6 -28 -11 -60 -11 -70 0 -24 40 -36 69 -20 14 7 21 7 21
0 0 -5 4 -10 9 -10 5 0 15 26 21 58 6 31 14 65 16 75 3 10 0 17 -9 17 -10 0
-17 -15 -21 -44 -7 -48 -39 -89 -64 -84 -18 4 -18 11 -6 86 9 61 -12 54 -25
-8z"/>
</g>
</svg>
